{"asset":{"version":"2.0","generator":"Orbital Siege HQ Model Forge 1.0","copyright":"Original models generated for Orbital Siege","extras":{"package":"Orbital Siege · HQ Void Legion","contractVersion":1}},"scene":0,"scenes":[{"name":"Orbital Siege · HQ Void Legion","nodes":[0,17,40,69,105,135,159,186,238,262,275,295,316,367,418,475,532],"extras":{"family":"void","prefix":"enemy_","models":["swarm","interceptor","corvette","armored","bomber","shield","jammer","carrier","repair","voidturret","voidyard","terraformer","overseer","leviathan","eclipse","sovereign","worldeater"],"units":"game-space","fallback":"procedural HTML","artDirection":"original asymmetric biomechanical space-RTS silhouettes"}}],"nodes":[{"name":"enemy_swarm","extras":{"kind":"void-ship","key":"swarm","lod":"high","forward":"-Z","up":"+Y","turretCount":0},"children":[1,2,3,4,5,6,7,8,9,10,11,12,13,14,15,16]},{"name":"organic_hull","translation":[0,0,0],"rotation":[0,0,0,1],"scale":[2.88,2.2,4.32],"mesh":0},{"name":"blade_-1","translation":[-2.88,-0.2,0],"rotation":[0,-0.7071067811865475,0,0.7071067811865476],"scale":[1.04,0.32,3.06],"mesh":1},{"name":"engine_pod_-1","translation":[-2.08,-0.72,2.61],"rotation":[0,0,0,1],"scale":[0.64,0.64,1.53],"mesh":2},{"name":"blade_1","translation":[2.88,-0.2,0],"rotation":[0,0.7071067811865475,0,0.7071067811865476],"scale":[1.04,0.32,3.06],"mesh":1},{"name":"engine_pod_1","translation":[2.08,-0.72,2.61],"rotation":[0,0,0,1],"scale":[0.64,0.64,1.53],"mesh":2},{"name":"void_vein","translation":[0,-1.52,0],"rotation":[0,0,0,1],"scale":[0.36,0.12,3.15],"mesh":3},{"name":"dorsal_spine_1","translation":[-0.96,1.92,-2.1],"rotation":[0.7071067811865475,0,0,0.7071067811865476],"scale":[0.32,0.32,0.88],"mesh":1},{"name":"dorsal_spine_2","translation":[0.96,1.92,0],"rotation":[0.7071067811865475,0,0,0.7071067811865476],"scale":[0.32,0.32,0.88],"mesh":1},{"name":"dorsal_spine_3","translation":[-0.96,1.92,2.1],"rotation":[0.7071067811865475,0,0,0.7071067811865476],"scale":[0.32,0.32,0.88],"mesh":1},{"name":"muzzle_01","translation":[0,0,-4.86],"rotation":[0,0,0,1],"extras":{"socket":"muzzle"}},{"name":"engine_main_01","translation":[0,0,4.68],"rotation":[0,0,0,1],"extras":{"socket":"engine","color":"#4dff88"}},{"name":"shield_socket","translation":[0,0,0],"rotation":[0,0,0,1],"extras":{"socket":"shield","radius":5.4}},{"name":"camera_focus","translation":[0,0,0],"rotation":[0,0,0,1],"extras":{"socket":"camera"}},{"name":"damage_socket_1","translation":[-1.68,0,-4.5],"rotation":[0,0,0,1],"extras":{"socket":"damage"}},{"name":"damage_socket_2","translation":[0,0.88,0],"rotation":[0,0,0,1],"extras":{"socket":"damage"}},{"name":"damage_socket_3","translation":[1.68,0,4.5],"rotation":[0,0,0,1],"extras":{"socket":"damage"}},{"name":"enemy_interceptor","extras":{"kind":"void-ship","key":"interceptor","lod":"high","forward":"-Z","up":"+Y","turretCount":1},"children":[18,19,20,21,22,23,24,25,26,27,33,34,35,36,37,38,39]},{"name":"organic_hull","translation":[0,0,0],"rotation":[0,0,0,1],"scale":[5.04,3.8500000000000005,7.68],"mesh":0},{"name":"blade_-1","translation":[-5.04,-0.35000000000000003,0],"rotation":[0,-0.7071067811865475,0,0.7071067811865476],"scale":[1.82,0.56,5.44],"mesh":1},{"name":"engine_pod_-1","translation":[-3.64,-1.26,4.64],"rotation":[0,0,0,1],"scale":[1.12,1.12,2.72],"mesh":2},{"name":"blade_1","translation":[5.04,-0.35000000000000003,0],"rotation":[0,0.7071067811865475,0,0.7071067811865476],"scale":[1.82,0.56,5.44],"mesh":1},{"name":"engine_pod_1","translation":[3.64,-1.26,4.64],"rotation":[0,0,0,1],"scale":[1.12,1.12,2.72],"mesh":2},{"name":"void_vein","translation":[0,-2.66,0],"rotation":[0,0,0,1],"scale":[0.63,0.21,5.6],"mesh":3},{"name":"dorsal_spine_1","translation":[-1.68,3.36,-3.7333333333333334],"rotation":[0.7071067811865475,0,0,0.7071067811865476],"scale":[0.56,0.56,1.54],"mesh":1},{"name":"dorsal_spine_2","translation":[1.68,3.36,0],"rotation":[0.7071067811865475,0,0,0.7071067811865476],"scale":[0.56,0.56,1.54],"mesh":1},{"name":"dorsal_spine_3","translation":[-1.68,3.36,3.7333333333333334],"rotation":[0.7071067811865475,0,0,0.7071067811865476],"scale":[0.56,0.56,1.54],"mesh":1},{"name":"turret_01_yaw","translation":[0,4.06,3.2],"rotation":[0,0,0,1],"extras":{"joint":"yaw"},"children":[28,29]},{"name":"turret_01_pitch","translation":[0,0.21000000000000002,0],"rotation":[0,0,0,1],"extras":{"joint":"pitch"},"children":[30,31,32]},{"name":"turret_01_base","translation":[0,0,0],"rotation":[0,0,0,1],"scale":[0.8750000000000001,0.43400000000000005,0.8750000000000001],"mesh":4},{"name":"turret_01_fang_-1","translation":[-0.266,0,1.8200000000000003],"rotation":[0,0,0,1],"scale":[0.17500000000000002,0.17500000000000002,1.7500000000000002],"mesh":5},{"name":"turret_01_fang_1","translation":[0.266,0,1.8200000000000003],"rotation":[0,0,0,1],"scale":[0.17500000000000002,0.17500000000000002,1.7500000000000002],"mesh":5},{"name":"turret_01_muzzle","translation":[-0.266,0,3.5700000000000003],"rotation":[0,0,0,1],"extras":{"socket":"muzzle"}},{"name":"muzzle_01","translation":[0,0,-8.64],"rotation":[0,0,0,1],"extras":{"socket":"muzzle"}},{"name":"engine_main_01","translation":[0,0,8.32],"rotation":[0,0,0,1],"extras":{"socket":"engine","color":"#4dff88"}},{"name":"shield_socket","translation":[0,0,0],"rotation":[0,0,0,1],"extras":{"socket":"shield","radius":9.450000000000001}},{"name":"camera_focus","translation":[0,0,0],"rotation":[0,0,0,1],"extras":{"socket":"camera"}},{"name":"damage_socket_1","translation":[-2.94,0,-8],"rotation":[0,0,0,1],"extras":{"socket":"damage"}},{"name":"damage_socket_2","translation":[0,1.54,0],"rotation":[0,0,0,1],"extras":{"socket":"damage"}},{"name":"damage_socket_3","translation":[2.94,0,8],"rotation":[0,0,0,1],"extras":{"socket":"damage"}},{"name":"enemy_corvette","extras":{"kind":"void-ship","key":"corvette","lod":"high","forward":"-Z","up":"+Y","turretCount":2},"children":[41,42,43,44,45,46,47,48,49,50,56,62,63,64,65,66,67,68]},{"name":"organic_hull","translation":[0,0,0],"rotation":[0,0,0,1],"scale":[6.4799999999999995,4.95,10.559999999999999],"mesh":0},{"name":"blade_-1","translation":[-6.4799999999999995,-0.45,0],"rotation":[0,-0.7071067811865475,0,0.7071067811865476],"scale":[2.34,0.72,7.48],"mesh":1},{"name":"engine_pod_-1","translation":[-4.68,-1.6199999999999999,6.38],"rotation":[0,0,0,1],"scale":[1.44,1.44,3.74],"mesh":2},{"name":"blade_1","translation":[6.4799999999999995,-0.45,0],"rotation":[0,0.7071067811865475,0,0.7071067811865476],"scale":[2.34,0.72,7.48],"mesh":1},{"name":"engine_pod_1","translation":[4.68,-1.6199999999999999,6.38],"rotation":[0,0,0,1],"scale":[1.44,1.44,3.74],"mesh":2},{"name":"void_vein","translation":[0,-3.42,0],"rotation":[0,0,0,1],"scale":[0.8099999999999999,0.27,7.699999999999999],"mesh":3},{"name":"dorsal_spine_1","translation":[-2.16,4.32,-5.133333333333334],"rotation":[0.7071067811865475,0,0,0.7071067811865476],"scale":[0.72,0.72,1.98],"mesh":1},{"name":"dorsal_spine_2","translation":[2.16,4.32,0],"rotation":[0.7071067811865475,0,0,0.7071067811865476],"scale":[0.72,0.72,1.98],"mesh":1},{"name":"dorsal_spine_3","translation":[-2.16,4.32,5.133333333333334],"rotation":[0.7071067811865475,0,0,0.7071067811865476],"scale":[0.72,0.72,1.98],"mesh":1},{"name":"turret_01_yaw","translation":[0,5.22,4.4],"rotation":[0,0,0,1],"extras":{"joint":"yaw"},"children":[51,52]},{"name":"turret_01_pitch","translation":[0,0.27,0],"rotation":[0,0,0,1],"extras":{"joint":"pitch"},"children":[53,54,55]},{"name":"turret_01_base","translation":[0,0,0],"rotation":[0,0,0,1],"scale":[1.125,0.558,1.125],"mesh":4},{"name":"turret_01_fang_-1","translation":[-0.342,0,2.3400000000000003],"rotation":[0,0,0,1],"scale":[0.225,0.225,2.25],"mesh":5},{"name":"turret_01_fang_1","translation":[0.342,0,2.3400000000000003],"rotation":[0,0,0,1],"scale":[0.225,0.225,2.25],"mesh":5},{"name":"turret_01_muzzle","translation":[-0.342,0,4.59],"rotation":[0,0,0,1],"extras":{"socket":"muzzle"}},{"name":"turret_02_yaw","translation":[-4.05,3.6,4.4],"rotation":[0,0,0,1],"extras":{"joint":"yaw"},"children":[57,58]},{"name":"turret_02_pitch","translation":[0,0.27,0],"rotation":[0,0,0,1],"extras":{"joint":"pitch"},"children":[59,60,61]},{"name":"turret_02_base","translation":[0,0,0],"rotation":[0,0,0,1],"scale":[1.125,0.558,1.125],"mesh":4},{"name":"turret_02_fang_-1","translation":[-0.342,0,2.3400000000000003],"rotation":[0,0,0,1],"scale":[0.225,0.225,2.25],"mesh":5},{"name":"turret_02_fang_1","translation":[0.342,0,2.3400000000000003],"rotation":[0,0,0,1],"scale":[0.225,0.225,2.25],"mesh":5},{"name":"turret_02_muzzle","translation":[-0.342,0,4.59],"rotation":[0,0,0,1],"extras":{"socket":"muzzle"}},{"name":"muzzle_01","translation":[0,0,-11.88],"rotation":[0,0,0,1],"extras":{"socket":"muzzle"}},{"name":"engine_main_01","translation":[0,0,11.440000000000001],"rotation":[0,0,0,1],"extras":{"socket":"engine","color":"#4dff88"}},{"name":"shield_socket","translation":[0,0,0],"rotation":[0,0,0,1],"extras":{"socket":"shield","radius":12.15}},{"name":"camera_focus","translation":[0,0,0],"rotation":[0,0,0,1],"extras":{"socket":"camera"}},{"name":"damage_socket_1","translation":[-3.78,0,-11],"rotation":[0,0,0,1],"extras":{"socket":"damage"}},{"name":"damage_socket_2","translation":[0,1.98,0],"rotation":[0,0,0,1],"extras":{"socket":"damage"}},{"name":"damage_socket_3","translation":[3.78,0,11],"rotation":[0,0,0,1],"extras":{"socket":"damage"}},{"name":"enemy_armored","extras":{"kind":"void-ship","key":"armored","lod":"high","forward":"-Z","up":"+Y","turretCount":3},"children":[70,71,72,73,74,75,76,77,78,79,80,86,92,98,99,100,101,102,103,104]},{"name":"organic_hull","translation":[0,0,0],"rotation":[0,0,0,1],"scale":[8.64,6.6000000000000005,13.44],"mesh":0},{"name":"blade_-1","translation":[-8.64,-0.6000000000000001,0],"rotation":[0,-0.7071067811865475,0,0.7071067811865476],"scale":[3.12,0.96,9.520000000000001],"mesh":1},{"name":"engine_pod_-1","translation":[-6.24,-2.16,8.12],"rotation":[0,0,0,1],"scale":[1.92,1.92,4.760000000000001],"mesh":2},{"name":"blade_1","translation":[8.64,-0.6000000000000001,0],"rotation":[0,0.7071067811865475,0,0.7071067811865476],"scale":[3.12,0.96,9.520000000000001],"mesh":1},{"name":"engine_pod_1","translation":[6.24,-2.16,8.12],"rotation":[0,0,0,1],"scale":[1.92,1.92,4.760000000000001],"mesh":2},{"name":"void_vein","translation":[0,-4.5600000000000005,0],"rotation":[0,0,0,1],"scale":[1.08,0.36,9.799999999999999],"mesh":3},{"name":"dorsal_spine_1","translation":[-2.88,5.76,-7.35],"rotation":[0.7071067811865475,0,0,0.7071067811865476],"scale":[0.96,0.96,2.64],"mesh":1},{"name":"dorsal_spine_2","translation":[2.88,5.76,-2.4499999999999997],"rotation":[0.7071067811865475,0,0,0.7071067811865476],"scale":[0.96,0.96,2.64],"mesh":1},{"name":"dorsal_spine_3","translation":[-2.88,5.76,2.4499999999999997],"rotation":[0.7071067811865475,0,0,0.7071067811865476],"scale":[0.96,0.96,2.64],"mesh":1},{"name":"dorsal_spine_4","translation":[2.88,5.76,7.35],"rotation":[0.7071067811865475,0,0,0.7071067811865476],"scale":[0.96,0.96,2.64],"mesh":1},{"name":"turret_01_yaw","translation":[0,6.959999999999999,5.6000000000000005],"rotation":[0,0,0,1],"extras":{"joint":"yaw"},"children":[81,82]},{"name":"turret_01_pitch","translation":[0,0.36000000000000004,0],"rotation":[0,0,0,1],"extras":{"joint":"pitch"},"children":[83,84,85]},{"name":"turret_01_base","translation":[0,0,0],"rotation":[0,0,0,1],"scale":[1.5000000000000002,0.7440000000000001,1.5000000000000002],"mesh":4},{"name":"turret_01_fang_-1","translation":[-0.45600000000000007,0,3.1200000000000006],"rotation":[0,0,0,1],"scale":[0.30000000000000004,0.30000000000000004,3.0000000000000004],"mesh":5},{"name":"turret_01_fang_1","translation":[0.45600000000000007,0,3.1200000000000006],"rotation":[0,0,0,1],"scale":[0.30000000000000004,0.30000000000000004,3.0000000000000004],"mesh":5},{"name":"turret_01_muzzle","translation":[-0.45600000000000007,0,6.12],"rotation":[0,0,0,1],"extras":{"socket":"muzzle"}},{"name":"turret_02_yaw","translation":[-5.4,4.800000000000001,5.6000000000000005],"rotation":[0,0,0,1],"extras":{"joint":"yaw"},"children":[87,88]},{"name":"turret_02_pitch","translation":[0,0.36000000000000004,0],"rotation":[0,0,0,1],"extras":{"joint":"pitch"},"children":[89,90,91]},{"name":"turret_02_base","translation":[0,0,0],"rotation":[0,0,0,1],"scale":[1.5000000000000002,0.7440000000000001,1.5000000000000002],"mesh":4},{"name":"turret_02_fang_-1","translation":[-0.45600000000000007,0,3.1200000000000006],"rotation":[0,0,0,1],"scale":[0.30000000000000004,0.30000000000000004,3.0000000000000004],"mesh":5},{"name":"turret_02_fang_1","translation":[0.45600000000000007,0,3.1200000000000006],"rotation":[0,0,0,1],"scale":[0.30000000000000004,0.30000000000000004,3.0000000000000004],"mesh":5},{"name":"turret_02_muzzle","translation":[-0.45600000000000007,0,6.12],"rotation":[0,0,0,1],"extras":{"socket":"muzzle"}},{"name":"turret_03_yaw","translation":[5.4,4.800000000000001,0.84],"rotation":[0,0,0,1],"extras":{"joint":"yaw"},"children":[93,94]},{"name":"turret_03_pitch","translation":[0,0.36000000000000004,0],"rotation":[0,0,0,1],"extras":{"joint":"pitch"},"children":[95,96,97]},{"name":"turret_03_base","translation":[0,0,0],"rotation":[0,0,0,1],"scale":[1.5000000000000002,0.7440000000000001,1.5000000000000002],"mesh":4},{"name":"turret_03_fang_-1","translation":[-0.45600000000000007,0,3.1200000000000006],"rotation":[0,0,0,1],"scale":[0.30000000000000004,0.30000000000000004,3.0000000000000004],"mesh":5},{"name":"turret_03_fang_1","translation":[0.45600000000000007,0,3.1200000000000006],"rotation":[0,0,0,1],"scale":[0.30000000000000004,0.30000000000000004,3.0000000000000004],"mesh":5},{"name":"turret_03_muzzle","translation":[-0.45600000000000007,0,6.12],"rotation":[0,0,0,1],"extras":{"socket":"muzzle"}},{"name":"muzzle_01","translation":[0,0,-15.120000000000001],"rotation":[0,0,0,1],"extras":{"socket":"muzzle"}},{"name":"engine_main_01","translation":[0,0,14.56],"rotation":[0,0,0,1],"extras":{"socket":"engine","color":"#4dff88"}},{"name":"shield_socket","translation":[0,0,0],"rotation":[0,0,0,1],"extras":{"socket":"shield","radius":16.200000000000003}},{"name":"camera_focus","translation":[0,0,0],"rotation":[0,0,0,1],"extras":{"socket":"camera"}},{"name":"damage_socket_1","translation":[-5.04,0,-14],"rotation":[0,0,0,1],"extras":{"socket":"damage"}},{"name":"damage_socket_2","translation":[0,2.64,0],"rotation":[0,0,0,1],"extras":{"socket":"damage"}},{"name":"damage_socket_3","translation":[5.04,0,14],"rotation":[0,0,0,1],"extras":{"socket":"damage"}},{"name":"enemy_bomber","extras":{"kind":"void-ship","key":"bomber","lod":"high","forward":"-Z","up":"+Y","turretCount":2},"children":[106,107,108,109,110,111,112,113,114,115,116,122,128,129,130,131,132,133,134]},{"name":"organic_hull","translation":[0,0,0],"rotation":[0,0,0,1],"scale":[8.64,6.6000000000000005,12.48],"mesh":0},{"name":"blade_-1","translation":[-8.64,-0.6000000000000001,0],"rotation":[0,-0.7071067811865475,0,0.7071067811865476],"scale":[3.12,0.96,8.84],"mesh":1},{"name":"engine_pod_-1","translation":[-6.24,-2.16,7.539999999999999],"rotation":[0,0,0,1],"scale":[1.92,1.92,4.42],"mesh":2},{"name":"blade_1","translation":[8.64,-0.6000000000000001,0],"rotation":[0,0.7071067811865475,0,0.7071067811865476],"scale":[3.12,0.96,8.84],"mesh":1},{"name":"engine_pod_1","translation":[6.24,-2.16,7.539999999999999],"rotation":[0,0,0,1],"scale":[1.92,1.92,4.42],"mesh":2},{"name":"void_vein","translation":[0,-4.5600000000000005,0],"rotation":[0,0,0,1],"scale":[1.08,0.36,9.1],"mesh":3},{"name":"dorsal_spine_1","translation":[-2.88,5.76,-6.824999999999999],"rotation":[0.7071067811865475,0,0,0.7071067811865476],"scale":[0.96,0.96,2.64],"mesh":1},{"name":"dorsal_spine_2","translation":[2.88,5.76,-2.275],"rotation":[0.7071067811865475,0,0,0.7071067811865476],"scale":[0.96,0.96,2.64],"mesh":1},{"name":"dorsal_spine_3","translation":[-2.88,5.76,2.275],"rotation":[0.7071067811865475,0,0,0.7071067811865476],"scale":[0.96,0.96,2.64],"mesh":1},{"name":"dorsal_spine_4","translation":[2.88,5.76,6.824999999999999],"rotation":[0.7071067811865475,0,0,0.7071067811865476],"scale":[0.96,0.96,2.64],"mesh":1},{"name":"turret_01_yaw","translation":[0,6.959999999999999,5.2],"rotation":[0,0,0,1],"extras":{"joint":"yaw"},"children":[117,118]},{"name":"turret_01_pitch","translation":[0,0.36000000000000004,0],"rotation":[0,0,0,1],"extras":{"joint":"pitch"},"children":[119,120,121]},{"name":"turret_01_base","translation":[0,0,0],"rotation":[0,0,0,1],"scale":[1.5000000000000002,0.7440000000000001,1.5000000000000002],"mesh":4},{"name":"turret_01_fang_-1","translation":[-0.45600000000000007,0,3.1200000000000006],"rotation":[0,0,0,1],"scale":[0.30000000000000004,0.30000000000000004,3.0000000000000004],"mesh":5},{"name":"turret_01_fang_1","translation":[0.45600000000000007,0,3.1200000000000006],"rotation":[0,0,0,1],"scale":[0.30000000000000004,0.30000000000000004,3.0000000000000004],"mesh":5},{"name":"turret_01_muzzle","translation":[-0.45600000000000007,0,6.12],"rotation":[0,0,0,1],"extras":{"socket":"muzzle"}},{"name":"turret_02_yaw","translation":[-5.4,4.800000000000001,5.2],"rotation":[0,0,0,1],"extras":{"joint":"yaw"},"children":[123,124]},{"name":"turret_02_pitch","translation":[0,0.36000000000000004,0],"rotation":[0,0,0,1],"extras":{"joint":"pitch"},"children":[125,126,127]},{"name":"turret_02_base","translation":[0,0,0],"rotation":[0,0,0,1],"scale":[1.5000000000000002,0.7440000000000001,1.5000000000000002],"mesh":4},{"name":"turret_02_fang_-1","translation":[-0.45600000000000007,0,3.1200000000000006],"rotation":[0,0,0,1],"scale":[0.30000000000000004,0.30000000000000004,3.0000000000000004],"mesh":5},{"name":"turret_02_fang_1","translation":[0.45600000000000007,0,3.1200000000000006],"rotation":[0,0,0,1],"scale":[0.30000000000000004,0.30000000000000004,3.0000000000000004],"mesh":5},{"name":"turret_02_muzzle","translation":[-0.45600000000000007,0,6.12],"rotation":[0,0,0,1],"extras":{"socket":"muzzle"}},{"name":"muzzle_01","translation":[0,0,-14.040000000000001],"rotation":[0,0,0,1],"extras":{"socket":"muzzle"}},{"name":"engine_main_01","translation":[0,0,13.52],"rotation":[0,0,0,1],"extras":{"socket":"engine","color":"#4dff88"}},{"name":"shield_socket","translation":[0,0,0],"rotation":[0,0,0,1],"extras":{"socket":"shield","radius":16.200000000000003}},{"name":"camera_focus","translation":[0,0,0],"rotation":[0,0,0,1],"extras":{"socket":"camera"}},{"name":"damage_socket_1","translation":[-5.04,0,-13],"rotation":[0,0,0,1],"extras":{"socket":"damage"}},{"name":"damage_socket_2","translation":[0,2.64,0],"rotation":[0,0,0,1],"extras":{"socket":"damage"}},{"name":"damage_socket_3","translation":[5.04,0,13],"rotation":[0,0,0,1],"extras":{"socket":"damage"}},{"name":"enemy_shield","extras":{"kind":"void-ship","key":"shield","lod":"high","forward":"-Z","up":"+Y","turretCount":1},"children":[136,137,138,139,140,141,142,143,144,145,146,152,153,154,155,156,157,158]},{"name":"organic_hull","translation":[0,0,0],"rotation":[0,0,0,1],"scale":[7.199999999999999,5.5,8.64],"mesh":0},{"name":"blade_-1","translation":[-7.199999999999999,-0.5,0],"rotation":[0,-0.7071067811865475,0,0.7071067811865476],"scale":[2.6,0.8,6.12],"mesh":1},{"name":"engine_pod_-1","translation":[-5.2,-1.7999999999999998,5.22],"rotation":[0,0,0,1],"scale":[1.6,1.6,3.06],"mesh":2},{"name":"blade_1","translation":[7.199999999999999,-0.5,0],"rotation":[0,0.7071067811865475,0,0.7071067811865476],"scale":[2.6,0.8,6.12],"mesh":1},{"name":"engine_pod_1","translation":[5.2,-1.7999999999999998,5.22],"rotation":[0,0,0,1],"scale":[1.6,1.6,3.06],"mesh":2},{"name":"void_vein","translation":[0,-3.8,0],"rotation":[0,0,0,1],"scale":[0.8999999999999999,0.3,6.3],"mesh":3},{"name":"dorsal_spine_1","translation":[-2.4,4.8,-4.2],"rotation":[0.7071067811865475,0,0,0.7071067811865476],"scale":[0.8,0.8,2.2],"mesh":1},{"name":"dorsal_spine_2","translation":[2.4,4.8,0],"rotation":[0.7071067811865475,0,0,0.7071067811865476],"scale":[0.8,0.8,2.2],"mesh":1},{"name":"dorsal_spine_3","translation":[-2.4,4.8,4.2],"rotation":[0.7071067811865475,0,0,0.7071067811865476],"scale":[0.8,0.8,2.2],"mesh":1},{"name":"rotor_field_1","translation":[0,0,0],"rotation":[0,0.7071067811865475,0,0.7071067811865476],"scale":[7,7,0.8],"mesh":6},{"name":"turret_01_yaw","translation":[0,5.8,3.6],"rotation":[0,0,0,1],"extras":{"joint":"yaw"},"children":[147,148]},{"name":"turret_01_pitch","translation":[0,0.3,0],"rotation":[0,0,0,1],"extras":{"joint":"pitch"},"children":[149,150,151]},{"name":"turret_01_base","translation":[0,0,0],"rotation":[0,0,0,1],"scale":[1.25,0.62,1.25],"mesh":4},{"name":"turret_01_fang_-1","translation":[-0.38,0,2.6],"rotation":[0,0,0,1],"scale":[0.25,0.25,2.5],"mesh":5},{"name":"turret_01_fang_1","translation":[0.38,0,2.6],"rotation":[0,0,0,1],"scale":[0.25,0.25,2.5],"mesh":5},{"name":"turret_01_muzzle","translation":[-0.38,0,5.1],"rotation":[0,0,0,1],"extras":{"socket":"muzzle"}},{"name":"muzzle_01","translation":[0,0,-9.72],"rotation":[0,0,0,1],"extras":{"socket":"muzzle"}},{"name":"engine_main_01","translation":[0,0,9.36],"rotation":[0,0,0,1],"extras":{"socket":"engine","color":"#4dff88"}},{"name":"shield_socket","translation":[0,0,0],"rotation":[0,0,0,1],"extras":{"socket":"shield","radius":13.5}},{"name":"camera_focus","translation":[0,0,0],"rotation":[0,0,0,1],"extras":{"socket":"camera"}},{"name":"damage_socket_1","translation":[-4.2,0,-9],"rotation":[0,0,0,1],"extras":{"socket":"damage"}},{"name":"damage_socket_2","translation":[0,2.2,0],"rotation":[0,0,0,1],"extras":{"socket":"damage"}},{"name":"damage_socket_3","translation":[4.2,0,9],"rotation":[0,0,0,1],"extras":{"socket":"damage"}},{"name":"enemy_jammer","extras":{"kind":"void-ship","key":"jammer","lod":"high","forward":"-Z","up":"+Y","turretCount":1},"children":[160,161,162,163,164,165,166,167,168,169,170,171,172,173,179,180,181,182,183,184,185]},{"name":"organic_hull","translation":[0,0,0],"rotation":[0,0,0,1],"scale":[7.92,6.050000000000001,9.6],"mesh":0},{"name":"blade_-1","translation":[-7.92,-0.55,0],"rotation":[0,-0.7071067811865475,0,0.7071067811865476],"scale":[2.8600000000000003,0.88,6.800000000000001],"mesh":1},{"name":"engine_pod_-1","translation":[-5.720000000000001,-1.98,5.8],"rotation":[0,0,0,1],"scale":[1.76,1.76,3.4000000000000004],"mesh":2},{"name":"blade_1","translation":[7.92,-0.55,0],"rotation":[0,0.7071067811865475,0,0.7071067811865476],"scale":[2.8600000000000003,0.88,6.800000000000001],"mesh":1},{"name":"engine_pod_1","translation":[5.720000000000001,-1.98,5.8],"rotation":[0,0,0,1],"scale":[1.76,1.76,3.4000000000000004],"mesh":2},{"name":"void_vein","translation":[0,-4.18,0],"rotation":[0,0,0,1],"scale":[0.99,0.32999999999999996,7],"mesh":3},{"name":"dorsal_spine_1","translation":[-2.6399999999999997,5.279999999999999,-5.25],"rotation":[0.7071067811865475,0,0,0.7071067811865476],"scale":[0.88,0.88,2.42],"mesh":1},{"name":"dorsal_spine_2","translation":[2.6399999999999997,5.279999999999999,-1.75],"rotation":[0.7071067811865475,0,0,0.7071067811865476],"scale":[0.88,0.88,2.42],"mesh":1},{"name":"dorsal_spine_3","translation":[-2.6399999999999997,5.279999999999999,1.75],"rotation":[0.7071067811865475,0,0,0.7071067811865476],"scale":[0.88,0.88,2.42],"mesh":1},{"name":"dorsal_spine_4","translation":[2.6399999999999997,5.279999999999999,5.25],"rotation":[0.7071067811865475,0,0,0.7071067811865476],"scale":[0.88,0.88,2.42],"mesh":1},{"name":"rotor_field_1","translation":[0,0,0],"rotation":[0,0.7071067811865475,0,0.7071067811865476],"scale":[7.699999999999999,7.699999999999999,0.88],"mesh":6},{"name":"rotor_field_2","translation":[0,0,0],"rotation":[0.2666807994976923,0.7601336326786859,0.336191629161448,0.4879071634355735],"scale":[9.899999999999999,9.899999999999999,0.88],"mesh":6},{"name":"rotor_field_3","translation":[0,0,0],"rotation":[0.378157003818868,0.6464988500135754,0.6421865725784787,0.16319596623007424],"scale":[12.100000000000001,12.100000000000001,0.88],"mesh":6},{"name":"turret_01_yaw","translation":[0,6.38,4],"rotation":[0,0,0,1],"extras":{"joint":"yaw"},"children":[174,175]},{"name":"turret_01_pitch","translation":[0,0.33,0],"rotation":[0,0,0,1],"extras":{"joint":"pitch"},"children":[176,177,178]},{"name":"turret_01_base","translation":[0,0,0],"rotation":[0,0,0,1],"scale":[1.375,0.682,1.375],"mesh":4},{"name":"turret_01_fang_-1","translation":[-0.41800000000000004,0,2.8600000000000003],"rotation":[0,0,0,1],"scale":[0.275,0.275,2.75],"mesh":5},{"name":"turret_01_fang_1","translation":[0.41800000000000004,0,2.8600000000000003],"rotation":[0,0,0,1],"scale":[0.275,0.275,2.75],"mesh":5},{"name":"turret_01_muzzle","translation":[-0.41800000000000004,0,5.61],"rotation":[0,0,0,1],"extras":{"socket":"muzzle"}},{"name":"muzzle_01","translation":[0,0,-10.8],"rotation":[0,0,0,1],"extras":{"socket":"muzzle"}},{"name":"engine_main_01","translation":[0,0,10.4],"rotation":[0,0,0,1],"extras":{"socket":"engine","color":"#4dff88"}},{"name":"shield_socket","translation":[0,0,0],"rotation":[0,0,0,1],"extras":{"socket":"shield","radius":14.850000000000001}},{"name":"camera_focus","translation":[0,0,0],"rotation":[0,0,0,1],"extras":{"socket":"camera"}},{"name":"damage_socket_1","translation":[-4.62,0,-10],"rotation":[0,0,0,1],"extras":{"socket":"damage"}},{"name":"damage_socket_2","translation":[0,2.42,0],"rotation":[0,0,0,1],"extras":{"socket":"damage"}},{"name":"damage_socket_3","translation":[4.62,0,10],"rotation":[0,0,0,1],"extras":{"socket":"damage"}},{"name":"enemy_carrier","extras":{"kind":"void-ship","key":"carrier","lod":"high","forward":"-Z","up":"+Y","turretCount":4},"children":[187,188,189,190,191,192,193,194,195,196,197,198,199,200,201,202,203,204,205,206,207,213,219,225,231,232,233,234,235,236,237]},{"name":"organic_hull","translation":[0,0,0],"rotation":[0,0,0,1],"scale":[12.959999999999999,9.9,19.2],"mesh":0},{"name":"blade_-1","translation":[-12.959999999999999,-0.9,0],"rotation":[0,-0.7071067811865475,0,0.7071067811865476],"scale":[4.68,1.44,13.600000000000001],"mesh":1},{"name":"engine_pod_-1","translation":[-9.36,-3.2399999999999998,11.6],"rotation":[0,0,0,1],"scale":[2.88,2.88,6.800000000000001],"mesh":2},{"name":"blade_1","translation":[12.959999999999999,-0.9,0],"rotation":[0,0.7071067811865475,0,0.7071067811865476],"scale":[4.68,1.44,13.600000000000001],"mesh":1},{"name":"engine_pod_1","translation":[9.36,-3.2399999999999998,11.6],"rotation":[0,0,0,1],"scale":[2.88,2.88,6.800000000000001],"mesh":2},{"name":"void_vein","translation":[0,-6.84,0],"rotation":[0,0,0,1],"scale":[1.6199999999999999,0.54,14],"mesh":3},{"name":"dorsal_spine_1","translation":[-4.32,8.64,-11.666666666666666],"rotation":[0.7071067811865475,0,0,0.7071067811865476],"scale":[1.44,1.44,3.96],"mesh":1},{"name":"dorsal_spine_2","translation":[4.32,8.64,-7],"rotation":[0.7071067811865475,0,0,0.7071067811865476],"scale":[1.44,1.44,3.96],"mesh":1},{"name":"dorsal_spine_3","translation":[-4.32,8.64,-2.3333333333333326],"rotation":[0.7071067811865475,0,0,0.7071067811865476],"scale":[1.44,1.44,3.96],"mesh":1},{"name":"dorsal_spine_4","translation":[4.32,8.64,2.3333333333333344],"rotation":[0.7071067811865475,0,0,0.7071067811865476],"scale":[1.44,1.44,3.96],"mesh":1},{"name":"dorsal_spine_5","translation":[-4.32,8.64,7],"rotation":[0.7071067811865475,0,0,0.7071067811865476],"scale":[1.44,1.44,3.96],"mesh":1},{"name":"dorsal_spine_6","translation":[4.32,8.64,11.666666666666664],"rotation":[0.7071067811865475,0,0,0.7071067811865476],"scale":[1.44,1.44,3.96],"mesh":1},{"name":"spawn_bay_-1_0","translation":[-12.959999999999999,0,-12],"rotation":[0,0,0,1],"scale":[0.45,2.34,2.2],"mesh":3},{"name":"spawn_bay_-1_1","translation":[-12.959999999999999,0,-4],"rotation":[0,0,0,1],"scale":[0.45,2.34,2.2],"mesh":3},{"name":"spawn_bay_-1_2","translation":[-12.959999999999999,0,4],"rotation":[0,0,0,1],"scale":[0.45,2.34,2.2],"mesh":3},{"name":"spawn_bay_-1_3","translation":[-12.959999999999999,0,12],"rotation":[0,0,0,1],"scale":[0.45,2.34,2.2],"mesh":3},{"name":"spawn_bay_1_0","translation":[12.959999999999999,0,-12],"rotation":[0,0,0,1],"scale":[0.45,2.34,2.2],"mesh":3},{"name":"spawn_bay_1_1","translation":[12.959999999999999,0,-4],"rotation":[0,0,0,1],"scale":[0.45,2.34,2.2],"mesh":3},{"name":"spawn_bay_1_2","translation":[12.959999999999999,0,4],"rotation":[0,0,0,1],"scale":[0.45,2.34,2.2],"mesh":3},{"name":"spawn_bay_1_3","translation":[12.959999999999999,0,12],"rotation":[0,0,0,1],"scale":[0.45,2.34,2.2],"mesh":3},{"name":"turret_01_yaw","translation":[0,10.44,8],"rotation":[0,0,0,1],"extras":{"joint":"yaw"},"children":[208,209]},{"name":"turret_01_pitch","translation":[0,0.54,0],"rotation":[0,0,0,1],"extras":{"joint":"pitch"},"children":[210,211,212]},{"name":"turret_01_base","translation":[0,0,0],"rotation":[0,0,0,1],"scale":[2.25,1.116,2.25],"mesh":4},{"name":"turret_01_fang_-1","translation":[-0.684,0,4.680000000000001],"rotation":[0,0,0,1],"scale":[0.45,0.45,4.5],"mesh":5},{"name":"turret_01_fang_1","translation":[0.684,0,4.680000000000001],"rotation":[0,0,0,1],"scale":[0.45,0.45,4.5],"mesh":5},{"name":"turret_01_muzzle","translation":[-0.684,0,9.18],"rotation":[0,0,0,1],"extras":{"socket":"muzzle"}},{"name":"turret_02_yaw","translation":[-8.1,7.2,8],"rotation":[0,0,0,1],"extras":{"joint":"yaw"},"children":[214,215]},{"name":"turret_02_pitch","translation":[0,0.54,0],"rotation":[0,0,0,1],"extras":{"joint":"pitch"},"children":[216,217,218]},{"name":"turret_02_base","translation":[0,0,0],"rotation":[0,0,0,1],"scale":[2.25,1.116,2.25],"mesh":4},{"name":"turret_02_fang_-1","translation":[-0.684,0,4.680000000000001],"rotation":[0,0,0,1],"scale":[0.45,0.45,4.5],"mesh":5},{"name":"turret_02_fang_1","translation":[0.684,0,4.680000000000001],"rotation":[0,0,0,1],"scale":[0.45,0.45,4.5],"mesh":5},{"name":"turret_02_muzzle","translation":[-0.684,0,9.18],"rotation":[0,0,0,1],"extras":{"socket":"muzzle"}},{"name":"turret_03_yaw","translation":[8.1,7.2,1.2],"rotation":[0,0,0,1],"extras":{"joint":"yaw"},"children":[220,221]},{"name":"turret_03_pitch","translation":[0,0.54,0],"rotation":[0,0,0,1],"extras":{"joint":"pitch"},"children":[222,223,224]},{"name":"turret_03_base","translation":[0,0,0],"rotation":[0,0,0,1],"scale":[2.25,1.116,2.25],"mesh":4},{"name":"turret_03_fang_-1","translation":[-0.684,0,4.680000000000001],"rotation":[0,0,0,1],"scale":[0.45,0.45,4.5],"mesh":5},{"name":"turret_03_fang_1","translation":[0.684,0,4.680000000000001],"rotation":[0,0,0,1],"scale":[0.45,0.45,4.5],"mesh":5},{"name":"turret_03_muzzle","translation":[-0.684,0,9.18],"rotation":[0,0,0,1],"extras":{"socket":"muzzle"}},{"name":"turret_04_yaw","translation":[-8.1,7.2,1.2],"rotation":[0,0,0,1],"extras":{"joint":"yaw"},"children":[226,227]},{"name":"turret_04_pitch","translation":[0,0.54,0],"rotation":[0,0,0,1],"extras":{"joint":"pitch"},"children":[228,229,230]},{"name":"turret_04_base","translation":[0,0,0],"rotation":[0,0,0,1],"scale":[2.25,1.116,2.25],"mesh":4},{"name":"turret_04_fang_-1","translation":[-0.684,0,4.680000000000001],"rotation":[0,0,0,1],"scale":[0.45,0.45,4.5],"mesh":5},{"name":"turret_04_fang_1","translation":[0.684,0,4.680000000000001],"rotation":[0,0,0,1],"scale":[0.45,0.45,4.5],"mesh":5},{"name":"turret_04_muzzle","translation":[-0.684,0,9.18],"rotation":[0,0,0,1],"extras":{"socket":"muzzle"}},{"name":"muzzle_01","translation":[0,0,-21.6],"rotation":[0,0,0,1],"extras":{"socket":"muzzle"}},{"name":"engine_main_01","translation":[0,0,20.8],"rotation":[0,0,0,1],"extras":{"socket":"engine","color":"#4dff88"}},{"name":"shield_socket","translation":[0,0,0],"rotation":[0,0,0,1],"extras":{"socket":"shield","radius":24.3}},{"name":"camera_focus","translation":[0,0,0],"rotation":[0,0,0,1],"extras":{"socket":"camera"}},{"name":"damage_socket_1","translation":[-7.56,0,-20],"rotation":[0,0,0,1],"extras":{"socket":"damage"}},{"name":"damage_socket_2","translation":[0,3.96,0],"rotation":[0,0,0,1],"extras":{"socket":"damage"}},{"name":"damage_socket_3","translation":[7.56,0,20],"rotation":[0,0,0,1],"extras":{"socket":"damage"}},{"name":"enemy_repair","extras":{"kind":"void-ship","key":"repair","lod":"high","forward":"-Z","up":"+Y","turretCount":1},"children":[239,240,241,242,243,244,245,246,247,248,249,255,256,257,258,259,260,261]},{"name":"organic_hull","translation":[0,0,0],"rotation":[0,0,0,1],"scale":[7.199999999999999,5.5,9.6],"mesh":0},{"name":"blade_-1","translation":[-7.199999999999999,-0.5,0],"rotation":[0,-0.7071067811865475,0,0.7071067811865476],"scale":[2.6,0.8,6.800000000000001],"mesh":1},{"name":"engine_pod_-1","translation":[-5.2,-1.7999999999999998,5.8],"rotation":[0,0,0,1],"scale":[1.6,1.6,3.4000000000000004],"mesh":2},{"name":"blade_1","translation":[7.199999999999999,-0.5,0],"rotation":[0,0.7071067811865475,0,0.7071067811865476],"scale":[2.6,0.8,6.800000000000001],"mesh":1},{"name":"engine_pod_1","translation":[5.2,-1.7999999999999998,5.8],"rotation":[0,0,0,1],"scale":[1.6,1.6,3.4000000000000004],"mesh":2},{"name":"void_vein","translation":[0,-3.8,0],"rotation":[0,0,0,1],"scale":[0.8999999999999999,0.3,7],"mesh":3},{"name":"dorsal_spine_1","translation":[-2.4,4.8,-4.666666666666667],"rotation":[0.7071067811865475,0,0,0.7071067811865476],"scale":[0.8,0.8,2.2],"mesh":1},{"name":"dorsal_spine_2","translation":[2.4,4.8,0],"rotation":[0.7071067811865475,0,0,0.7071067811865476],"scale":[0.8,0.8,2.2],"mesh":1},{"name":"dorsal_spine_3","translation":[-2.4,4.8,4.666666666666667],"rotation":[0.7071067811865475,0,0,0.7071067811865476],"scale":[0.8,0.8,2.2],"mesh":1},{"name":"rotor_field_1","translation":[0,0,0],"rotation":[0,0.7071067811865475,0,0.7071067811865476],"scale":[7,7,0.8],"mesh":6},{"name":"turret_01_yaw","translation":[0,5.8,4],"rotation":[0,0,0,1],"extras":{"joint":"yaw"},"children":[250,251]},{"name":"turret_01_pitch","translation":[0,0.3,0],"rotation":[0,0,0,1],"extras":{"joint":"pitch"},"children":[252,253,254]},{"name":"turret_01_base","translation":[0,0,0],"rotation":[0,0,0,1],"scale":[1.25,0.62,1.25],"mesh":4},{"name":"turret_01_fang_-1","translation":[-0.38,0,2.6],"rotation":[0,0,0,1],"scale":[0.25,0.25,2.5],"mesh":5},{"name":"turret_01_fang_1","translation":[0.38,0,2.6],"rotation":[0,0,0,1],"scale":[0.25,0.25,2.5],"mesh":5},{"name":"turret_01_muzzle","translation":[-0.38,0,5.1],"rotation":[0,0,0,1],"extras":{"socket":"muzzle"}},{"name":"muzzle_01","translation":[0,0,-10.8],"rotation":[0,0,0,1],"extras":{"socket":"muzzle"}},{"name":"engine_main_01","translation":[0,0,10.4],"rotation":[0,0,0,1],"extras":{"socket":"engine","color":"#4dff88"}},{"name":"shield_socket","translation":[0,0,0],"rotation":[0,0,0,1],"extras":{"socket":"shield","radius":13.5}},{"name":"camera_focus","translation":[0,0,0],"rotation":[0,0,0,1],"extras":{"socket":"camera"}},{"name":"damage_socket_1","translation":[-4.2,0,-10],"rotation":[0,0,0,1],"extras":{"socket":"damage"}},{"name":"damage_socket_2","translation":[0,2.2,0],"rotation":[0,0,0,1],"extras":{"socket":"damage"}},{"name":"damage_socket_3","translation":[4.2,0,10],"rotation":[0,0,0,1],"extras":{"socket":"damage"}},{"name":"enemy_voidturret","extras":{"kind":"void-structure","key":"voidturret","lod":"high","forward":"-Z","up":"+Y","turretCount":0},"children":[263,264,265,266,267,268,269,270,271,272,273,274]},{"name":"fortress_core","translation":[0,0,0],"rotation":[0,0,0,1],"scale":[10.08,10.08,5.88],"mesh":7},{"name":"fortress_crown","translation":[0,0,-2.8000000000000003],"rotation":[0,0,0,1],"scale":[7.700000000000001,7,10.08],"mesh":4},{"name":"siege_fang_-1","translation":[-3.36,1.12,-13.299999999999999],"rotation":[1,0,0,6.123233995736766e-17],"scale":[1.12,1.12,10.08],"mesh":5},{"name":"siege_fang_1","translation":[3.36,1.12,-13.299999999999999],"rotation":[1,0,0,6.123233995736766e-17],"scale":[1.12,1.12,10.08],"mesh":5},{"name":"rotor_defense","translation":[0,0,0],"rotation":[0.7071067811865475,0,0,0.7071067811865476],"scale":[13.299999999999999,13.299999999999999,1.4000000000000001],"mesh":6},{"name":"muzzle_01","translation":[0,0,-15.120000000000001],"rotation":[0,0,0,1],"extras":{"socket":"muzzle"}},{"name":"engine_main_01","translation":[0,0,0],"rotation":[0,0,0,1],"extras":{"socket":"engine","color":"#4dff88"}},{"name":"shield_socket","translation":[0,0,0],"rotation":[0,0,0,1],"extras":{"socket":"shield","radius":18.900000000000002}},{"name":"camera_focus","translation":[0,0,0],"rotation":[0,0,0,1],"extras":{"socket":"camera"}},{"name":"damage_socket_1","translation":[-5.88,0,-14],"rotation":[0,0,0,1],"extras":{"socket":"damage"}},{"name":"damage_socket_2","translation":[0,3.08,0],"rotation":[0,0,0,1],"extras":{"socket":"damage"}},{"name":"damage_socket_3","translation":[5.88,0,14],"rotation":[0,0,0,1],"extras":{"socket":"damage"}},{"name":"enemy_voidyard","extras":{"kind":"void-structure","key":"voidyard","lod":"high","forward":"-Z","up":"+Y","turretCount":0},"children":[276,277,278,279,280,281,282,283,284,285,286,287,288,289,290,291,292,293,294]},{"name":"yard_spine","translation":[0,0,0],"rotation":[0,0,0,1],"scale":[11.700000000000001,8.84,24.96],"mesh":0},{"name":"yard_dock_-1","translation":[-16.900000000000002,0,0],"rotation":[0,0,0,1],"scale":[6.24,5.2,18.72],"mesh":8},{"name":"void_hangar_-1_0","translation":[-23.92,0,-15.6],"rotation":[0,0,0,1],"scale":[0.65,3.12,3.12],"mesh":3},{"name":"void_hangar_-1_1","translation":[-23.92,0,-5.199999999999999],"rotation":[0,0,0,1],"scale":[0.65,3.12,3.12],"mesh":3},{"name":"void_hangar_-1_2","translation":[-23.92,0,5.200000000000001],"rotation":[0,0,0,1],"scale":[0.65,3.12,3.12],"mesh":3},{"name":"void_hangar_-1_3","translation":[-23.92,0,15.600000000000003],"rotation":[0,0,0,1],"scale":[0.65,3.12,3.12],"mesh":3},{"name":"yard_dock_1","translation":[16.900000000000002,0,0],"rotation":[0,0,0,1],"scale":[6.24,5.2,18.72],"mesh":8},{"name":"void_hangar_1_0","translation":[23.92,0,-15.6],"rotation":[0,0,0,1],"scale":[0.65,3.12,3.12],"mesh":3},{"name":"void_hangar_1_1","translation":[23.92,0,-5.199999999999999],"rotation":[0,0,0,1],"scale":[0.65,3.12,3.12],"mesh":3},{"name":"void_hangar_1_2","translation":[23.92,0,5.200000000000001],"rotation":[0,0,0,1],"scale":[0.65,3.12,3.12],"mesh":3},{"name":"void_hangar_1_3","translation":[23.92,0,15.600000000000003],"rotation":[0,0,0,1],"scale":[0.65,3.12,3.12],"mesh":3},{"name":"rotor_yard","translation":[0,0,0],"rotation":[0.7071067811865475,0,0,0.7071067811865476],"scale":[26,26,3.12],"mesh":6},{"name":"muzzle_01","translation":[0,0,-28.080000000000002],"rotation":[0,0,0,1],"extras":{"socket":"muzzle"}},{"name":"engine_main_01","translation":[0,0,0],"rotation":[0,0,0,1],"extras":{"socket":"engine","color":"#4dff88"}},{"name":"shield_socket","translation":[0,0,0],"rotation":[0,0,0,1],"extras":{"socket":"shield","radius":35.1}},{"name":"camera_focus","translation":[0,0,0],"rotation":[0,0,0,1],"extras":{"socket":"camera"}},{"name":"damage_socket_1","translation":[-10.92,0,-26],"rotation":[0,0,0,1],"extras":{"socket":"damage"}},{"name":"damage_socket_2","translation":[0,5.72,0],"rotation":[0,0,0,1],"extras":{"socket":"damage"}},{"name":"damage_socket_3","translation":[10.92,0,26],"rotation":[0,0,0,1],"extras":{"socket":"damage"}},{"name":"enemy_terraformer","extras":{"kind":"void-structure","key":"terraformer","lod":"high","forward":"-Z","up":"+Y","turretCount":0},"children":[296,297,298,299,300,301,302,303,304,305,306,307,308,309,310,311,312,313,314,315]},{"name":"terraform_core","translation":[0,0,0],"rotation":[0,0,0,1],"scale":[17.98,14.26,22.32],"mesh":9},{"name":"terraform_singularity","translation":[0,0,0],"rotation":[0,0,0,1],"scale":[8.680000000000001,6.2,11.78],"mesh":10},{"name":"rotor_terraform_1","translation":[0,0,0],"rotation":[0,0.7071067811865475,0,0.7071067811865476],"scale":[22.32,22.32,2.48],"mesh":6},{"name":"rotor_terraform_2","translation":[0,0,0],"rotation":[0.2472832454124041,0.7827284901024093,0.29133862567104174,0.49123203530757226],"scale":[26.349999999999998,26.349999999999998,2.48],"mesh":11},{"name":"rotor_terraform_3","translation":[0,0,0],"rotation":[0.3779545563207706,0.7252819926682867,0.5483693459431814,0.17437730614198643],"scale":[30.38,30.38,2.48],"mesh":6},{"name":"planet_claw_1","translation":[21.7,0,0],"rotation":[0,0.7071067811865475,0,0.7071067811865476],"scale":[3.41,3.41,13.02],"mesh":12},{"name":"planet_claw_2","translation":[15.344217151748083,15.34421715174808,0],"rotation":[0.27059805007309845,0.6532814824381882,0.2705980500730985,0.6532814824381883],"scale":[3.41,3.41,13.02],"mesh":1},{"name":"planet_claw_3","translation":[1.3287417770748782e-15,21.7,0],"rotation":[0.4999999999999999,0.5,0.5,0.5000000000000001],"scale":[3.41,3.41,13.02],"mesh":12},{"name":"planet_claw_4","translation":[-15.34421715174808,15.344217151748083,0],"rotation":[0.6532814824381882,0.2705980500730985,0.6532814824381883,0.27059805007309856],"scale":[3.41,3.41,13.02],"mesh":1},{"name":"planet_claw_5","translation":[-21.7,2.6574835541497563e-15,0],"rotation":[0.7071067811865475,4.329780281177466e-17,0.7071067811865476,4.329780281177467e-17],"scale":[3.41,3.41,13.02],"mesh":12},{"name":"planet_claw_6","translation":[-15.344217151748085,-15.34421715174808,0],"rotation":[0.6532814824381882,-0.27059805007309845,0.6532814824381883,-0.2705980500730985],"scale":[3.41,3.41,13.02],"mesh":1},{"name":"planet_claw_7","translation":[-3.986225331224634e-15,-21.7,0],"rotation":[0.5,-0.4999999999999999,0.5000000000000001,-0.5],"scale":[3.41,3.41,13.02],"mesh":12},{"name":"planet_claw_8","translation":[15.344217151748078,-15.344217151748085,0],"rotation":[0.27059805007309856,-0.6532814824381882,0.2705980500730986,-0.6532814824381883],"scale":[3.41,3.41,13.02],"mesh":1},{"name":"muzzle_01","translation":[0,0,-31.32],"rotation":[0,0,0,1],"extras":{"socket":"muzzle"}},{"name":"engine_main_01","translation":[0,0,0],"rotation":[0,0,0,1],"extras":{"socket":"engine","color":"#4dff88"}},{"name":"shield_socket","translation":[0,0,0],"rotation":[0,0,0,1],"extras":{"socket":"shield","radius":41.85}},{"name":"camera_focus","translation":[0,0,0],"rotation":[0,0,0,1],"extras":{"socket":"camera"}},{"name":"damage_socket_1","translation":[-13.02,0,-29],"rotation":[0,0,0,1],"extras":{"socket":"damage"}},{"name":"damage_socket_2","translation":[0,6.82,0],"rotation":[0,0,0,1],"extras":{"socket":"damage"}},{"name":"damage_socket_3","translation":[13.02,0,29],"rotation":[0,0,0,1],"extras":{"socket":"damage"}},{"name":"enemy_overseer","extras":{"kind":"void-boss","key":"overseer","lod":"high","forward":"-Z","up":"+Y","turretCount":5},"children":[317,318,319,320,321,322,323,324,325,326,327,328,329,330,336,342,348,354,360,361,362,363,364,365,366]},{"name":"boss_hull","translation":[0,0,0],"rotation":[0,0,0,1],"scale":[16.56,12.88,21.15],"mesh":13},{"name":"boss_armor_core","translation":[0,0,0],"rotation":[0,0,0,1],"scale":[15.64,9.89,13.95],"mesh":4},{"name":"boss_singularity","translation":[0,0,-1.8],"rotation":[0,0,0,1],"scale":[5.06,3.68,6.44],"mesh":14},{"name":"rotor_boss_1","translation":[0,0,-1.8],"rotation":[0,0.7071067811865475,0,0.7071067811865476],"scale":[16.56,16.56,2.07],"mesh":15},{"name":"rotor_boss_2","translation":[0,0,-1.8],"rotation":[0.2174712000632512,0.7786741908695134,0.2469474687299401,0.5342188028370336],"scale":[20.01,20.01,2.07],"mesh":15},{"name":"rotor_boss_3","translation":[0,0,-1.8],"rotation":[0.3600328217112252,0.752008242899017,0.4753021298226453,0.28097660986040024],"scale":[23.46,23.46,2.07],"mesh":15},{"name":"boss_spire_1","translation":[16.79,0,0],"rotation":[0,0.7071067811865475,0,0.7071067811865476],"scale":[2.76,2.76,12.600000000000001],"mesh":16},{"name":"boss_spire_2","translation":[10.468393773208136,10.789274458058811,0],"rotation":[0.30680213417660024,0.6370811961317673,0.30680213417660024,0.6370811961317674],"scale":[2.76,2.76,12.600000000000001],"mesh":1},{"name":"boss_spire_3","translation":[-3.736126481126518,13.454005188109164,0],"rotation":[0.5528383429982752,0.4408738668949674,0.5528383429982753,0.44087386689496744],"scale":[2.76,2.76,12.600000000000001],"mesh":16},{"name":"boss_spire_4","translation":[-15.127267292081614,5.987595599822304,0],"rotation":[0.6893781378718103,0.15734606135647383,0.6893781378718105,0.15734606135647383],"scale":[2.76,2.76,12.600000000000001],"mesh":1},{"name":"boss_spire_5","translation":[-15.127267292081617,-5.9875955998223,0],"rotation":[0.6893781378718103,-0.15734606135647375,0.6893781378718105,-0.15734606135647378],"scale":[2.76,2.76,12.600000000000001],"mesh":16},{"name":"boss_spire_6","translation":[-3.7361264811265213,-13.454005188109164,0],"rotation":[0.5528383429982753,-0.44087386689496727,0.5528383429982753,-0.4408738668949674],"scale":[2.76,2.76,12.600000000000001],"mesh":1},{"name":"boss_spire_7","translation":[10.468393773208133,-10.789274458058813,0],"rotation":[0.3068021341766003,-0.6370811961317672,0.30680213417660035,-0.6370811961317673],"scale":[2.76,2.76,12.600000000000001],"mesh":16},{"name":"turret_01_yaw","translation":[0,13.34,9],"rotation":[0,0,0,1],"extras":{"joint":"yaw"},"children":[331,332]},{"name":"turret_01_pitch","translation":[0,0.483,0],"rotation":[0,0,0,1],"extras":{"joint":"pitch"},"children":[333,334,335]},{"name":"turret_01_base","translation":[0,0,0],"rotation":[0,0,0,1],"scale":[2.0125,0.9982000000000001,2.0125],"mesh":4},{"name":"turret_01_fang_-1","translation":[-0.6118,0,4.186000000000001],"rotation":[0,0,0,1],"scale":[0.4025,0.4025,4.025],"mesh":17},{"name":"turret_01_fang_1","translation":[0.6118,0,4.186000000000001],"rotation":[0,0,0,1],"scale":[0.4025,0.4025,4.025],"mesh":17},{"name":"turret_01_muzzle","translation":[-0.6118,0,8.211],"rotation":[0,0,0,1],"extras":{"socket":"muzzle"}},{"name":"turret_02_yaw","translation":[-10.35,9.200000000000001,9],"rotation":[0,0,0,1],"extras":{"joint":"yaw"},"children":[337,338]},{"name":"turret_02_pitch","translation":[0,0.483,0],"rotation":[0,0,0,1],"extras":{"joint":"pitch"},"children":[339,340,341]},{"name":"turret_02_base","translation":[0,0,0],"rotation":[0,0,0,1],"scale":[2.0125,0.9982000000000001,2.0125],"mesh":4},{"name":"turret_02_fang_-1","translation":[-0.6118,0,4.186000000000001],"rotation":[0,0,0,1],"scale":[0.4025,0.4025,4.025],"mesh":17},{"name":"turret_02_fang_1","translation":[0.6118,0,4.186000000000001],"rotation":[0,0,0,1],"scale":[0.4025,0.4025,4.025],"mesh":17},{"name":"turret_02_muzzle","translation":[-0.6118,0,8.211],"rotation":[0,0,0,1],"extras":{"socket":"muzzle"}},{"name":"turret_03_yaw","translation":[10.35,9.200000000000001,1.3499999999999999],"rotation":[0,0,0,1],"extras":{"joint":"yaw"},"children":[343,344]},{"name":"turret_03_pitch","translation":[0,0.483,0],"rotation":[0,0,0,1],"extras":{"joint":"pitch"},"children":[345,346,347]},{"name":"turret_03_base","translation":[0,0,0],"rotation":[0,0,0,1],"scale":[2.0125,0.9982000000000001,2.0125],"mesh":4},{"name":"turret_03_fang_-1","translation":[-0.6118,0,4.186000000000001],"rotation":[0,0,0,1],"scale":[0.4025,0.4025,4.025],"mesh":17},{"name":"turret_03_fang_1","translation":[0.6118,0,4.186000000000001],"rotation":[0,0,0,1],"scale":[0.4025,0.4025,4.025],"mesh":17},{"name":"turret_03_muzzle","translation":[-0.6118,0,8.211],"rotation":[0,0,0,1],"extras":{"socket":"muzzle"}},{"name":"turret_04_yaw","translation":[-10.35,9.200000000000001,1.3499999999999999],"rotation":[0,0,0,1],"extras":{"joint":"yaw"},"children":[349,350]},{"name":"turret_04_pitch","translation":[0,0.483,0],"rotation":[0,0,0,1],"extras":{"joint":"pitch"},"children":[351,352,353]},{"name":"turret_04_base","translation":[0,0,0],"rotation":[0,0,0,1],"scale":[2.0125,0.9982000000000001,2.0125],"mesh":4},{"name":"turret_04_fang_-1","translation":[-0.6118,0,4.186000000000001],"rotation":[0,0,0,1],"scale":[0.4025,0.4025,4.025],"mesh":17},{"name":"turret_04_fang_1","translation":[0.6118,0,4.186000000000001],"rotation":[0,0,0,1],"scale":[0.4025,0.4025,4.025],"mesh":17},{"name":"turret_04_muzzle","translation":[-0.6118,0,8.211],"rotation":[0,0,0,1],"extras":{"socket":"muzzle"}},{"name":"turret_05_yaw","translation":[10.35,9.200000000000001,-6.300000000000001],"rotation":[0,0,0,1],"extras":{"joint":"yaw"},"children":[355,356]},{"name":"turret_05_pitch","translation":[0,0.483,0],"rotation":[0,0,0,1],"extras":{"joint":"pitch"},"children":[357,358,359]},{"name":"turret_05_base","translation":[0,0,0],"rotation":[0,0,0,1],"scale":[2.0125,0.9982000000000001,2.0125],"mesh":4},{"name":"turret_05_fang_-1","translation":[-0.6118,0,4.186000000000001],"rotation":[0,0,0,1],"scale":[0.4025,0.4025,4.025],"mesh":17},{"name":"turret_05_fang_1","translation":[0.6118,0,4.186000000000001],"rotation":[0,0,0,1],"scale":[0.4025,0.4025,4.025],"mesh":17},{"name":"turret_05_muzzle","translation":[-0.6118,0,8.211],"rotation":[0,0,0,1],"extras":{"socket":"muzzle"}},{"name":"muzzle_01","translation":[0,0,-24.3],"rotation":[0,0,0,1],"extras":{"socket":"muzzle"}},{"name":"engine_main_01","translation":[0,0,23.400000000000002],"rotation":[0,0,0,1],"extras":{"socket":"engine","color":"#4dff88"}},{"name":"shield_socket","translation":[0,0,0],"rotation":[0,0,0,1],"extras":{"socket":"shield","radius":31.05}},{"name":"camera_focus","translation":[0,0,0],"rotation":[0,0,0,1],"extras":{"socket":"camera"}},{"name":"damage_socket_1","translation":[-9.66,0,-22.5],"rotation":[0,0,0,1],"extras":{"socket":"damage"}},{"name":"damage_socket_2","translation":[0,5.06,0],"rotation":[0,0,0,1],"extras":{"socket":"damage"}},{"name":"damage_socket_3","translation":[9.66,0,22.5],"rotation":[0,0,0,1],"extras":{"socket":"damage"}},{"name":"enemy_leviathan","extras":{"kind":"void-boss","key":"leviathan","lod":"high","forward":"-Z","up":"+Y","turretCount":5},"children":[368,369,370,371,372,373,374,375,376,377,378,379,380,381,387,393,399,405,411,412,413,414,415,416,417]},{"name":"boss_hull","translation":[0,0,0],"rotation":[0,0,0,1],"scale":[19.439999999999998,15.120000000000001,24.91],"mesh":13},{"name":"boss_armor_core","translation":[0,0,0],"rotation":[0,0,0,1],"scale":[18.360000000000003,11.61,16.43],"mesh":4},{"name":"boss_singularity","translation":[0,0,-2.12],"rotation":[0,0,0,1],"scale":[5.94,4.32,7.5600000000000005],"mesh":14},{"name":"rotor_boss_1","translation":[0,0,-2.12],"rotation":[0,0.7071067811865475,0,0.7071067811865476],"scale":[19.439999999999998,19.439999999999998,2.4299999999999997],"mesh":15},{"name":"rotor_boss_2","translation":[0,0,-2.12],"rotation":[0.2174712000632512,0.7786741908695134,0.2469474687299401,0.5342188028370336],"scale":[23.49,23.49,2.4299999999999997],"mesh":15},{"name":"rotor_boss_3","translation":[0,0,-2.12],"rotation":[0.3600328217112252,0.752008242899017,0.4753021298226453,0.28097660986040024],"scale":[27.54,27.54,2.4299999999999997],"mesh":15},{"name":"boss_spire_1","translation":[19.71,0,0],"rotation":[0,0.7071067811865475,0,0.7071067811865476],"scale":[3.2399999999999998,3.2399999999999998,14.840000000000002],"mesh":16},{"name":"boss_spire_2","translation":[12.288983994635638,12.665670015982082,0],"rotation":[0.30680213417660024,0.6370811961317673,0.30680213417660024,0.6370811961317674],"scale":[3.2399999999999998,3.2399999999999998,14.840000000000002],"mesh":1},{"name":"boss_spire_3","translation":[-4.3858876082789555,15.793832177345543,0],"rotation":[0.5528383429982752,0.4408738668949674,0.5528383429982753,0.44087386689496744],"scale":[3.2399999999999998,3.2399999999999998,14.840000000000002],"mesh":16},{"name":"boss_spire_4","translation":[-17.758096386356677,7.028916573704444,0],"rotation":[0.6893781378718103,0.15734606135647383,0.6893781378718105,0.15734606135647383],"scale":[3.2399999999999998,3.2399999999999998,14.840000000000002],"mesh":1},{"name":"boss_spire_5","translation":[-17.75809638635668,-7.028916573704439,0],"rotation":[0.6893781378718103,-0.15734606135647375,0.6893781378718105,-0.15734606135647378],"scale":[3.2399999999999998,3.2399999999999998,14.840000000000002],"mesh":16},{"name":"boss_spire_6","translation":[-4.385887608278961,-15.793832177345543,0],"rotation":[0.5528383429982753,-0.44087386689496727,0.5528383429982753,-0.4408738668949674],"scale":[3.2399999999999998,3.2399999999999998,14.840000000000002],"mesh":1},{"name":"boss_spire_7","translation":[12.288983994635636,-12.665670015982084,0],"rotation":[0.3068021341766003,-0.6370811961317672,0.30680213417660035,-0.6370811961317673],"scale":[3.2399999999999998,3.2399999999999998,14.840000000000002],"mesh":16},{"name":"turret_01_yaw","translation":[0,15.659999999999998,10.600000000000001],"rotation":[0,0,0,1],"extras":{"joint":"yaw"},"children":[382,383]},{"name":"turret_01_pitch","translation":[0,0.5670000000000001,0],"rotation":[0,0,0,1],"extras":{"joint":"pitch"},"children":[384,385,386]},{"name":"turret_01_base","translation":[0,0,0],"rotation":[0,0,0,1],"scale":[2.3625000000000003,1.1718000000000002,2.3625000000000003],"mesh":4},{"name":"turret_01_fang_-1","translation":[-0.7182000000000001,0,4.914000000000001],"rotation":[0,0,0,1],"scale":[0.47250000000000003,0.47250000000000003,4.7250000000000005],"mesh":17},{"name":"turret_01_fang_1","translation":[0.7182000000000001,0,4.914000000000001],"rotation":[0,0,0,1],"scale":[0.47250000000000003,0.47250000000000003,4.7250000000000005],"mesh":17},{"name":"turret_01_muzzle","translation":[-0.7182000000000001,0,9.639],"rotation":[0,0,0,1],"extras":{"socket":"muzzle"}},{"name":"turret_02_yaw","translation":[-12.15,10.8,10.600000000000001],"rotation":[0,0,0,1],"extras":{"joint":"yaw"},"children":[388,389]},{"name":"turret_02_pitch","translation":[0,0.5670000000000001,0],"rotation":[0,0,0,1],"extras":{"joint":"pitch"},"children":[390,391,392]},{"name":"turret_02_base","translation":[0,0,0],"rotation":[0,0,0,1],"scale":[2.3625000000000003,1.1718000000000002,2.3625000000000003],"mesh":4},{"name":"turret_02_fang_-1","translation":[-0.7182000000000001,0,4.914000000000001],"rotation":[0,0,0,1],"scale":[0.47250000000000003,0.47250000000000003,4.7250000000000005],"mesh":17},{"name":"turret_02_fang_1","translation":[0.7182000000000001,0,4.914000000000001],"rotation":[0,0,0,1],"scale":[0.47250000000000003,0.47250000000000003,4.7250000000000005],"mesh":17},{"name":"turret_02_muzzle","translation":[-0.7182000000000001,0,9.639],"rotation":[0,0,0,1],"extras":{"socket":"muzzle"}},{"name":"turret_03_yaw","translation":[12.15,10.8,1.5899999999999999],"rotation":[0,0,0,1],"extras":{"joint":"yaw"},"children":[394,395]},{"name":"turret_03_pitch","translation":[0,0.5670000000000001,0],"rotation":[0,0,0,1],"extras":{"joint":"pitch"},"children":[396,397,398]},{"name":"turret_03_base","translation":[0,0,0],"rotation":[0,0,0,1],"scale":[2.3625000000000003,1.1718000000000002,2.3625000000000003],"mesh":4},{"name":"turret_03_fang_-1","translation":[-0.7182000000000001,0,4.914000000000001],"rotation":[0,0,0,1],"scale":[0.47250000000000003,0.47250000000000003,4.7250000000000005],"mesh":17},{"name":"turret_03_fang_1","translation":[0.7182000000000001,0,4.914000000000001],"rotation":[0,0,0,1],"scale":[0.47250000000000003,0.47250000000000003,4.7250000000000005],"mesh":17},{"name":"turret_03_muzzle","translation":[-0.7182000000000001,0,9.639],"rotation":[0,0,0,1],"extras":{"socket":"muzzle"}},{"name":"turret_04_yaw","translation":[-12.15,10.8,1.5899999999999999],"rotation":[0,0,0,1],"extras":{"joint":"yaw"},"children":[400,401]},{"name":"turret_04_pitch","translation":[0,0.5670000000000001,0],"rotation":[0,0,0,1],"extras":{"joint":"pitch"},"children":[402,403,404]},{"name":"turret_04_base","translation":[0,0,0],"rotation":[0,0,0,1],"scale":[2.3625000000000003,1.1718000000000002,2.3625000000000003],"mesh":4},{"name":"turret_04_fang_-1","translation":[-0.7182000000000001,0,4.914000000000001],"rotation":[0,0,0,1],"scale":[0.47250000000000003,0.47250000000000003,4.7250000000000005],"mesh":17},{"name":"turret_04_fang_1","translation":[0.7182000000000001,0,4.914000000000001],"rotation":[0,0,0,1],"scale":[0.47250000000000003,0.47250000000000003,4.7250000000000005],"mesh":17},{"name":"turret_04_muzzle","translation":[-0.7182000000000001,0,9.639],"rotation":[0,0,0,1],"extras":{"socket":"muzzle"}},{"name":"turret_05_yaw","translation":[12.15,10.8,-7.420000000000001],"rotation":[0,0,0,1],"extras":{"joint":"yaw"},"children":[406,407]},{"name":"turret_05_pitch","translation":[0,0.5670000000000001,0],"rotation":[0,0,0,1],"extras":{"joint":"pitch"},"children":[408,409,410]},{"name":"turret_05_base","translation":[0,0,0],"rotation":[0,0,0,1],"scale":[2.3625000000000003,1.1718000000000002,2.3625000000000003],"mesh":4},{"name":"turret_05_fang_-1","translation":[-0.7182000000000001,0,4.914000000000001],"rotation":[0,0,0,1],"scale":[0.47250000000000003,0.47250000000000003,4.7250000000000005],"mesh":17},{"name":"turret_05_fang_1","translation":[0.7182000000000001,0,4.914000000000001],"rotation":[0,0,0,1],"scale":[0.47250000000000003,0.47250000000000003,4.7250000000000005],"mesh":17},{"name":"turret_05_muzzle","translation":[-0.7182000000000001,0,9.639],"rotation":[0,0,0,1],"extras":{"socket":"muzzle"}},{"name":"muzzle_01","translation":[0,0,-28.62],"rotation":[0,0,0,1],"extras":{"socket":"muzzle"}},{"name":"engine_main_01","translation":[0,0,27.560000000000002],"rotation":[0,0,0,1],"extras":{"socket":"engine","color":"#4dff88"}},{"name":"shield_socket","translation":[0,0,0],"rotation":[0,0,0,1],"extras":{"socket":"shield","radius":36.45}},{"name":"camera_focus","translation":[0,0,0],"rotation":[0,0,0,1],"extras":{"socket":"camera"}},{"name":"damage_socket_1","translation":[-11.34,0,-26.5],"rotation":[0,0,0,1],"extras":{"socket":"damage"}},{"name":"damage_socket_2","translation":[0,5.94,0],"rotation":[0,0,0,1],"extras":{"socket":"damage"}},{"name":"damage_socket_3","translation":[11.34,0,26.5],"rotation":[0,0,0,1],"extras":{"socket":"damage"}},{"name":"enemy_eclipse","extras":{"kind":"void-boss","key":"eclipse","lod":"high","forward":"-Z","up":"+Y","turretCount":6},"children":[419,420,421,422,423,424,425,426,427,428,429,430,431,432,438,444,450,456,462,468,469,470,471,472,473,474]},{"name":"boss_hull","translation":[0,0,0],"rotation":[0,0,0,1],"scale":[20.88,16.240000000000002,27.259999999999998],"mesh":13},{"name":"boss_armor_core","translation":[0,0,0],"rotation":[0,0,0,1],"scale":[19.720000000000002,12.47,17.98],"mesh":4},{"name":"boss_singularity","translation":[0,0,-2.32],"rotation":[0,0,0,1],"scale":[6.38,4.64,8.120000000000001],"mesh":14},{"name":"rotor_boss_1","translation":[0,0,-2.32],"rotation":[0,0.7071067811865475,0,0.7071067811865476],"scale":[20.88,20.88,2.61],"mesh":15},{"name":"rotor_boss_2","translation":[0,0,-2.32],"rotation":[0.2174712000632512,0.7786741908695134,0.2469474687299401,0.5342188028370336],"scale":[25.23,25.23,2.61],"mesh":15},{"name":"rotor_boss_3","translation":[0,0,-2.32],"rotation":[0.3600328217112252,0.752008242899017,0.4753021298226453,0.28097660986040024],"scale":[29.580000000000002,29.580000000000002,2.61],"mesh":15},{"name":"boss_spire_1","translation":[21.169999999999998,0,0],"rotation":[0,0.7071067811865475,0,0.7071067811865476],"scale":[3.48,3.48,16.240000000000002],"mesh":16},{"name":"boss_spire_2","translation":[13.199279105349389,13.603867794943719,0],"rotation":[0.30680213417660024,0.6370811961317673,0.30680213417660024,0.6370811961317674],"scale":[3.48,3.48,16.240000000000002],"mesh":1},{"name":"boss_spire_3","translation":[-4.710768171855174,16.96374567196373,0],"rotation":[0.5528383429982752,0.4408738668949674,0.5528383429982753,0.44087386689496744],"scale":[3.48,3.48,16.240000000000002],"mesh":16},{"name":"boss_spire_4","translation":[-19.073510933494212,7.549577060645513,0],"rotation":[0.6893781378718103,0.15734606135647383,0.6893781378718105,0.15734606135647383],"scale":[3.48,3.48,16.240000000000002],"mesh":1},{"name":"boss_spire_5","translation":[-19.073510933494212,-7.549577060645509,0],"rotation":[0.6893781378718103,-0.15734606135647375,0.6893781378718105,-0.15734606135647378],"scale":[3.48,3.48,16.240000000000002],"mesh":16},{"name":"boss_spire_6","translation":[-4.71076817185518,-16.96374567196373,0],"rotation":[0.5528383429982753,-0.44087386689496727,0.5528383429982753,-0.4408738668949674],"scale":[3.48,3.48,16.240000000000002],"mesh":1},{"name":"boss_spire_7","translation":[13.199279105349383,-13.60386779494372,0],"rotation":[0.3068021341766003,-0.6370811961317672,0.30680213417660035,-0.6370811961317673],"scale":[3.48,3.48,16.240000000000002],"mesh":16},{"name":"turret_01_yaw","translation":[0,16.82,11.600000000000001],"rotation":[0,0,0,1],"extras":{"joint":"yaw"},"children":[433,434]},{"name":"turret_01_pitch","translation":[0,0.6090000000000001,0],"rotation":[0,0,0,1],"extras":{"joint":"pitch"},"children":[435,436,437]},{"name":"turret_01_base","translation":[0,0,0],"rotation":[0,0,0,1],"scale":[2.5375000000000005,1.2586000000000002,2.5375000000000005],"mesh":4},{"name":"turret_01_fang_-1","translation":[-0.7714000000000001,0,5.2780000000000005],"rotation":[0,0,0,1],"scale":[0.5075000000000001,0.5075000000000001,5.075000000000001],"mesh":17},{"name":"turret_01_fang_1","translation":[0.7714000000000001,0,5.2780000000000005],"rotation":[0,0,0,1],"scale":[0.5075000000000001,0.5075000000000001,5.075000000000001],"mesh":17},{"name":"turret_01_muzzle","translation":[-0.7714000000000001,0,10.353],"rotation":[0,0,0,1],"extras":{"socket":"muzzle"}},{"name":"turret_02_yaw","translation":[-13.05,11.600000000000001,11.600000000000001],"rotation":[0,0,0,1],"extras":{"joint":"yaw"},"children":[439,440]},{"name":"turret_02_pitch","translation":[0,0.6090000000000001,0],"rotation":[0,0,0,1],"extras":{"joint":"pitch"},"children":[441,442,443]},{"name":"turret_02_base","translation":[0,0,0],"rotation":[0,0,0,1],"scale":[2.5375000000000005,1.2586000000000002,2.5375000000000005],"mesh":4},{"name":"turret_02_fang_-1","translation":[-0.7714000000000001,0,5.2780000000000005],"rotation":[0,0,0,1],"scale":[0.5075000000000001,0.5075000000000001,5.075000000000001],"mesh":17},{"name":"turret_02_fang_1","translation":[0.7714000000000001,0,5.2780000000000005],"rotation":[0,0,0,1],"scale":[0.5075000000000001,0.5075000000000001,5.075000000000001],"mesh":17},{"name":"turret_02_muzzle","translation":[-0.7714000000000001,0,10.353],"rotation":[0,0,0,1],"extras":{"socket":"muzzle"}},{"name":"turret_03_yaw","translation":[13.05,11.600000000000001,1.74],"rotation":[0,0,0,1],"extras":{"joint":"yaw"},"children":[445,446]},{"name":"turret_03_pitch","translation":[0,0.6090000000000001,0],"rotation":[0,0,0,1],"extras":{"joint":"pitch"},"children":[447,448,449]},{"name":"turret_03_base","translation":[0,0,0],"rotation":[0,0,0,1],"scale":[2.5375000000000005,1.2586000000000002,2.5375000000000005],"mesh":4},{"name":"turret_03_fang_-1","translation":[-0.7714000000000001,0,5.2780000000000005],"rotation":[0,0,0,1],"scale":[0.5075000000000001,0.5075000000000001,5.075000000000001],"mesh":17},{"name":"turret_03_fang_1","translation":[0.7714000000000001,0,5.2780000000000005],"rotation":[0,0,0,1],"scale":[0.5075000000000001,0.5075000000000001,5.075000000000001],"mesh":17},{"name":"turret_03_muzzle","translation":[-0.7714000000000001,0,10.353],"rotation":[0,0,0,1],"extras":{"socket":"muzzle"}},{"name":"turret_04_yaw","translation":[-13.05,11.600000000000001,1.74],"rotation":[0,0,0,1],"extras":{"joint":"yaw"},"children":[451,452]},{"name":"turret_04_pitch","translation":[0,0.6090000000000001,0],"rotation":[0,0,0,1],"extras":{"joint":"pitch"},"children":[453,454,455]},{"name":"turret_04_base","translation":[0,0,0],"rotation":[0,0,0,1],"scale":[2.5375000000000005,1.2586000000000002,2.5375000000000005],"mesh":4},{"name":"turret_04_fang_-1","translation":[-0.7714000000000001,0,5.2780000000000005],"rotation":[0,0,0,1],"scale":[0.5075000000000001,0.5075000000000001,5.075000000000001],"mesh":17},{"name":"turret_04_fang_1","translation":[0.7714000000000001,0,5.2780000000000005],"rotation":[0,0,0,1],"scale":[0.5075000000000001,0.5075000000000001,5.075000000000001],"mesh":17},{"name":"turret_04_muzzle","translation":[-0.7714000000000001,0,10.353],"rotation":[0,0,0,1],"extras":{"socket":"muzzle"}},{"name":"turret_05_yaw","translation":[13.05,11.600000000000001,-8.120000000000001],"rotation":[0,0,0,1],"extras":{"joint":"yaw"},"children":[457,458]},{"name":"turret_05_pitch","translation":[0,0.6090000000000001,0],"rotation":[0,0,0,1],"extras":{"joint":"pitch"},"children":[459,460,461]},{"name":"turret_05_base","translation":[0,0,0],"rotation":[0,0,0,1],"scale":[2.5375000000000005,1.2586000000000002,2.5375000000000005],"mesh":4},{"name":"turret_05_fang_-1","translation":[-0.7714000000000001,0,5.2780000000000005],"rotation":[0,0,0,1],"scale":[0.5075000000000001,0.5075000000000001,5.075000000000001],"mesh":17},{"name":"turret_05_fang_1","translation":[0.7714000000000001,0,5.2780000000000005],"rotation":[0,0,0,1],"scale":[0.5075000000000001,0.5075000000000001,5.075000000000001],"mesh":17},{"name":"turret_05_muzzle","translation":[-0.7714000000000001,0,10.353],"rotation":[0,0,0,1],"extras":{"socket":"muzzle"}},{"name":"turret_06_yaw","translation":[-13.05,11.600000000000001,-8.120000000000001],"rotation":[0,0,0,1],"extras":{"joint":"yaw"},"children":[463,464]},{"name":"turret_06_pitch","translation":[0,0.6090000000000001,0],"rotation":[0,0,0,1],"extras":{"joint":"pitch"},"children":[465,466,467]},{"name":"turret_06_base","translation":[0,0,0],"rotation":[0,0,0,1],"scale":[2.5375000000000005,1.2586000000000002,2.5375000000000005],"mesh":4},{"name":"turret_06_fang_-1","translation":[-0.7714000000000001,0,5.2780000000000005],"rotation":[0,0,0,1],"scale":[0.5075000000000001,0.5075000000000001,5.075000000000001],"mesh":17},{"name":"turret_06_fang_1","translation":[0.7714000000000001,0,5.2780000000000005],"rotation":[0,0,0,1],"scale":[0.5075000000000001,0.5075000000000001,5.075000000000001],"mesh":17},{"name":"turret_06_muzzle","translation":[-0.7714000000000001,0,10.353],"rotation":[0,0,0,1],"extras":{"socket":"muzzle"}},{"name":"muzzle_01","translation":[0,0,-31.32],"rotation":[0,0,0,1],"extras":{"socket":"muzzle"}},{"name":"engine_main_01","translation":[0,0,30.16],"rotation":[0,0,0,1],"extras":{"socket":"engine","color":"#4dff88"}},{"name":"shield_socket","translation":[0,0,0],"rotation":[0,0,0,1],"extras":{"socket":"shield","radius":39.150000000000006}},{"name":"camera_focus","translation":[0,0,0],"rotation":[0,0,0,1],"extras":{"socket":"camera"}},{"name":"damage_socket_1","translation":[-12.18,0,-29],"rotation":[0,0,0,1],"extras":{"socket":"damage"}},{"name":"damage_socket_2","translation":[0,6.38,0],"rotation":[0,0,0,1],"extras":{"socket":"damage"}},{"name":"damage_socket_3","translation":[12.18,0,29],"rotation":[0,0,0,1],"extras":{"socket":"damage"}},{"name":"enemy_sovereign","extras":{"kind":"void-boss","key":"sovereign","lod":"high","forward":"-Z","up":"+Y","turretCount":6},"children":[476,477,478,479,480,481,482,483,484,485,486,487,488,489,495,501,507,513,519,525,526,527,528,529,530,531]},{"name":"boss_hull","translation":[0,0,0],"rotation":[0,0,0,1],"scale":[23.04,17.92,30.08],"mesh":13},{"name":"boss_armor_core","translation":[0,0,0],"rotation":[0,0,0,1],"scale":[21.76,13.76,19.84],"mesh":4},{"name":"boss_singularity","translation":[0,0,-2.56],"rotation":[0,0,0,1],"scale":[7.04,5.12,8.96],"mesh":14},{"name":"rotor_boss_1","translation":[0,0,-2.56],"rotation":[0,0.7071067811865475,0,0.7071067811865476],"scale":[23.04,23.04,2.88],"mesh":15},{"name":"rotor_boss_2","translation":[0,0,-2.56],"rotation":[0.2174712000632512,0.7786741908695134,0.2469474687299401,0.5342188028370336],"scale":[27.84,27.84,2.88],"mesh":15},{"name":"rotor_boss_3","translation":[0,0,-2.56],"rotation":[0.3600328217112252,0.752008242899017,0.4753021298226453,0.28097660986040024],"scale":[32.64,32.64,2.88],"mesh":15},{"name":"boss_spire_1","translation":[23.36,0,0],"rotation":[0,0.7071067811865475,0,0.7071067811865476],"scale":[3.84,3.84,17.92],"mesh":16},{"name":"boss_spire_2","translation":[14.564721771420016,15.011164463386171,0],"rotation":[0.30680213417660024,0.6370811961317673,0.30680213417660024,0.6370811961317674],"scale":[3.84,3.84,17.92],"mesh":1},{"name":"boss_spire_3","translation":[-5.198089017219503,18.718615913891014,0],"rotation":[0.5528383429982752,0.4408738668949674,0.5528383429982753,0.44087386689496744],"scale":[3.84,3.84,17.92],"mesh":16},{"name":"boss_spire_4","translation":[-21.04663275420051,8.330567791057117,0],"rotation":[0.6893781378718103,0.15734606135647383,0.6893781378718105,0.15734606135647383],"scale":[3.84,3.84,17.92],"mesh":1},{"name":"boss_spire_5","translation":[-21.046632754200512,-8.330567791057113,0],"rotation":[0.6893781378718103,-0.15734606135647375,0.6893781378718105,-0.15734606135647378],"scale":[3.84,3.84,17.92],"mesh":16},{"name":"boss_spire_6","translation":[-5.198089017219509,-18.718615913891014,0],"rotation":[0.5528383429982753,-0.44087386689496727,0.5528383429982753,-0.4408738668949674],"scale":[3.84,3.84,17.92],"mesh":1},{"name":"boss_spire_7","translation":[14.564721771420011,-15.011164463386173,0],"rotation":[0.3068021341766003,-0.6370811961317672,0.30680213417660035,-0.6370811961317673],"scale":[3.84,3.84,17.92],"mesh":16},{"name":"turret_01_yaw","translation":[0,18.56,12.8],"rotation":[0,0,0,1],"extras":{"joint":"yaw"},"children":[490,491]},{"name":"turret_01_pitch","translation":[0,0.672,0],"rotation":[0,0,0,1],"extras":{"joint":"pitch"},"children":[492,493,494]},{"name":"turret_01_base","translation":[0,0,0],"rotation":[0,0,0,1],"scale":[2.8000000000000003,1.3888,2.8000000000000003],"mesh":4},{"name":"turret_01_fang_-1","translation":[-0.8512000000000001,0,5.824000000000001],"rotation":[0,0,0,1],"scale":[0.56,0.56,5.6000000000000005],"mesh":17},{"name":"turret_01_fang_1","translation":[0.8512000000000001,0,5.824000000000001],"rotation":[0,0,0,1],"scale":[0.56,0.56,5.6000000000000005],"mesh":17},{"name":"turret_01_muzzle","translation":[-0.8512000000000001,0,11.424],"rotation":[0,0,0,1],"extras":{"socket":"muzzle"}},{"name":"turret_02_yaw","translation":[-14.4,12.8,12.8],"rotation":[0,0,0,1],"extras":{"joint":"yaw"},"children":[496,497]},{"name":"turret_02_pitch","translation":[0,0.672,0],"rotation":[0,0,0,1],"extras":{"joint":"pitch"},"children":[498,499,500]},{"name":"turret_02_base","translation":[0,0,0],"rotation":[0,0,0,1],"scale":[2.8000000000000003,1.3888,2.8000000000000003],"mesh":4},{"name":"turret_02_fang_-1","translation":[-0.8512000000000001,0,5.824000000000001],"rotation":[0,0,0,1],"scale":[0.56,0.56,5.6000000000000005],"mesh":17},{"name":"turret_02_fang_1","translation":[0.8512000000000001,0,5.824000000000001],"rotation":[0,0,0,1],"scale":[0.56,0.56,5.6000000000000005],"mesh":17},{"name":"turret_02_muzzle","translation":[-0.8512000000000001,0,11.424],"rotation":[0,0,0,1],"extras":{"socket":"muzzle"}},{"name":"turret_03_yaw","translation":[14.4,12.8,1.92],"rotation":[0,0,0,1],"extras":{"joint":"yaw"},"children":[502,503]},{"name":"turret_03_pitch","translation":[0,0.672,0],"rotation":[0,0,0,1],"extras":{"joint":"pitch"},"children":[504,505,506]},{"name":"turret_03_base","translation":[0,0,0],"rotation":[0,0,0,1],"scale":[2.8000000000000003,1.3888,2.8000000000000003],"mesh":4},{"name":"turret_03_fang_-1","translation":[-0.8512000000000001,0,5.824000000000001],"rotation":[0,0,0,1],"scale":[0.56,0.56,5.6000000000000005],"mesh":17},{"name":"turret_03_fang_1","translation":[0.8512000000000001,0,5.824000000000001],"rotation":[0,0,0,1],"scale":[0.56,0.56,5.6000000000000005],"mesh":17},{"name":"turret_03_muzzle","translation":[-0.8512000000000001,0,11.424],"rotation":[0,0,0,1],"extras":{"socket":"muzzle"}},{"name":"turret_04_yaw","translation":[-14.4,12.8,1.92],"rotation":[0,0,0,1],"extras":{"joint":"yaw"},"children":[508,509]},{"name":"turret_04_pitch","translation":[0,0.672,0],"rotation":[0,0,0,1],"extras":{"joint":"pitch"},"children":[510,511,512]},{"name":"turret_04_base","translation":[0,0,0],"rotation":[0,0,0,1],"scale":[2.8000000000000003,1.3888,2.8000000000000003],"mesh":4},{"name":"turret_04_fang_-1","translation":[-0.8512000000000001,0,5.824000000000001],"rotation":[0,0,0,1],"scale":[0.56,0.56,5.6000000000000005],"mesh":17},{"name":"turret_04_fang_1","translation":[0.8512000000000001,0,5.824000000000001],"rotation":[0,0,0,1],"scale":[0.56,0.56,5.6000000000000005],"mesh":17},{"name":"turret_04_muzzle","translation":[-0.8512000000000001,0,11.424],"rotation":[0,0,0,1],"extras":{"socket":"muzzle"}},{"name":"turret_05_yaw","translation":[14.4,12.8,-8.96],"rotation":[0,0,0,1],"extras":{"joint":"yaw"},"children":[514,515]},{"name":"turret_05_pitch","translation":[0,0.672,0],"rotation":[0,0,0,1],"extras":{"joint":"pitch"},"children":[516,517,518]},{"name":"turret_05_base","translation":[0,0,0],"rotation":[0,0,0,1],"scale":[2.8000000000000003,1.3888,2.8000000000000003],"mesh":4},{"name":"turret_05_fang_-1","translation":[-0.8512000000000001,0,5.824000000000001],"rotation":[0,0,0,1],"scale":[0.56,0.56,5.6000000000000005],"mesh":17},{"name":"turret_05_fang_1","translation":[0.8512000000000001,0,5.824000000000001],"rotation":[0,0,0,1],"scale":[0.56,0.56,5.6000000000000005],"mesh":17},{"name":"turret_05_muzzle","translation":[-0.8512000000000001,0,11.424],"rotation":[0,0,0,1],"extras":{"socket":"muzzle"}},{"name":"turret_06_yaw","translation":[-14.4,12.8,-8.96],"rotation":[0,0,0,1],"extras":{"joint":"yaw"},"children":[520,521]},{"name":"turret_06_pitch","translation":[0,0.672,0],"rotation":[0,0,0,1],"extras":{"joint":"pitch"},"children":[522,523,524]},{"name":"turret_06_base","translation":[0,0,0],"rotation":[0,0,0,1],"scale":[2.8000000000000003,1.3888,2.8000000000000003],"mesh":4},{"name":"turret_06_fang_-1","translation":[-0.8512000000000001,0,5.824000000000001],"rotation":[0,0,0,1],"scale":[0.56,0.56,5.6000000000000005],"mesh":17},{"name":"turret_06_fang_1","translation":[0.8512000000000001,0,5.824000000000001],"rotation":[0,0,0,1],"scale":[0.56,0.56,5.6000000000000005],"mesh":17},{"name":"turret_06_muzzle","translation":[-0.8512000000000001,0,11.424],"rotation":[0,0,0,1],"extras":{"socket":"muzzle"}},{"name":"muzzle_01","translation":[0,0,-34.56],"rotation":[0,0,0,1],"extras":{"socket":"muzzle"}},{"name":"engine_main_01","translation":[0,0,33.28],"rotation":[0,0,0,1],"extras":{"socket":"engine","color":"#4dff88"}},{"name":"shield_socket","translation":[0,0,0],"rotation":[0,0,0,1],"extras":{"socket":"shield","radius":43.2}},{"name":"camera_focus","translation":[0,0,0],"rotation":[0,0,0,1],"extras":{"socket":"camera"}},{"name":"damage_socket_1","translation":[-13.44,0,-32],"rotation":[0,0,0,1],"extras":{"socket":"damage"}},{"name":"damage_socket_2","translation":[0,7.04,0],"rotation":[0,0,0,1],"extras":{"socket":"damage"}},{"name":"damage_socket_3","translation":[13.44,0,32],"rotation":[0,0,0,1],"extras":{"socket":"damage"}},{"name":"enemy_worldeater","extras":{"kind":"void-boss","key":"worldeater","lod":"high","forward":"-Z","up":"+Y","turretCount":7},"children":[533,534,535,536,537,538,539,540,541,542,543,544,545,546,547,548,549,550,556,562,568,574,580,586,592,593,594,595,596,597,598]},{"name":"boss_hull","translation":[0,0,0],"rotation":[0,0,0,1],"scale":[28.08,21.840000000000003,36.66],"mesh":13},{"name":"boss_armor_core","translation":[0,0,0],"rotation":[0,0,0,1],"scale":[26.520000000000003,16.77,24.18],"mesh":4},{"name":"boss_singularity","translation":[0,0,-3.12],"rotation":[0,0,0,1],"scale":[8.58,6.24,10.920000000000002],"mesh":10},{"name":"rotor_boss_1","translation":[0,0,-3.12],"rotation":[0,0.7071067811865475,0,0.7071067811865476],"scale":[28.08,28.08,3.51],"mesh":15},{"name":"rotor_boss_2","translation":[0,0,-3.12],"rotation":[0.2174712000632512,0.7786741908695134,0.2469474687299401,0.5342188028370336],"scale":[33.93,33.93,3.51],"mesh":15},{"name":"rotor_boss_3","translation":[0,0,-3.12],"rotation":[0.3600328217112252,0.752008242899017,0.4753021298226453,0.28097660986040024],"scale":[39.78,39.78,3.51],"mesh":15},{"name":"rotor_boss_4","translation":[0,0,-3.12],"rotation":[0.39653490832867516,0.6519275245540093,0.6462347155242525,-0.01145694797663746],"scale":[45.629999999999995,45.629999999999995,3.51],"mesh":11},{"name":"boss_spire_1","translation":[28.47,0,0],"rotation":[0,0.7071067811865475,0,0.7071067811865476],"scale":[4.68,4.68,21.840000000000003],"mesh":16},{"name":"boss_spire_2","translation":[23.032713829854753,13.754174903643872,0],"rotation":[0.2185080122244105,0.6724985119639573,0.21850801222441052,0.6724985119639574],"scale":[4.68,4.68,21.840000000000003],"mesh":1},{"name":"boss_spire_3","translation":[8.797713829854754,22.25472248130659,0],"rotation":[0.4156269377774534,0.5720614028176843,0.41562693777745346,0.5720614028176844],"scale":[4.68,4.68,21.840000000000003],"mesh":16},{"name":"boss_spire_4","translation":[-8.79771382985475,22.254722481306594,0],"rotation":[0.5720614028176843,0.4156269377774534,0.5720614028176844,0.41562693777745346],"scale":[4.68,4.68,21.840000000000003],"mesh":1},{"name":"boss_spire_5","translation":[-23.032713829854753,13.754174903643873,0],"rotation":[0.6724985119639573,0.21850801222441055,0.6724985119639574,0.21850801222441057],"scale":[4.68,4.68,21.840000000000003],"mesh":16},{"name":"boss_spire_6","translation":[-28.47,2.8656735100048066e-15,0],"rotation":[0.7071067811865475,4.329780281177466e-17,0.7071067811865476,4.329780281177467e-17],"scale":[4.68,4.68,21.840000000000003],"mesh":1},{"name":"boss_spire_7","translation":[-23.032713829854753,-13.754174903643868,0],"rotation":[0.6724985119639573,-0.21850801222441046,0.6724985119639574,-0.2185080122244105],"scale":[4.68,4.68,21.840000000000003],"mesh":16},{"name":"boss_spire_8","translation":[-8.797713829854757,-22.25472248130659,0],"rotation":[0.5720614028176843,-0.4156269377774533,0.5720614028176844,-0.4156269377774534],"scale":[4.68,4.68,21.840000000000003],"mesh":1},{"name":"boss_spire_9","translation":[8.797713829854748,-22.254722481306594,0],"rotation":[0.41562693777745346,-0.5720614028176841,0.4156269377774535,-0.5720614028176843],"scale":[4.68,4.68,21.840000000000003],"mesh":16},{"name":"boss_spire_10","translation":[23.032713829854753,-13.754174903643877,0],"rotation":[0.21850801222441057,-0.6724985119639573,0.2185080122244106,-0.6724985119639574],"scale":[4.68,4.68,21.840000000000003],"mesh":1},{"name":"turret_01_yaw","translation":[0,22.619999999999997,15.600000000000001],"rotation":[0,0,0,1],"extras":{"joint":"yaw"},"children":[551,552]},{"name":"turret_01_pitch","translation":[0,0.8190000000000001,0],"rotation":[0,0,0,1],"extras":{"joint":"pitch"},"children":[553,554,555]},{"name":"turret_01_base","translation":[0,0,0],"rotation":[0,0,0,1],"scale":[3.4125000000000005,1.6926000000000003,3.4125000000000005],"mesh":4},{"name":"turret_01_fang_-1","translation":[-1.0374,0,7.098000000000002],"rotation":[0,0,0,1],"scale":[0.6825000000000001,0.6825000000000001,6.825000000000001],"mesh":17},{"name":"turret_01_fang_1","translation":[1.0374,0,7.098000000000002],"rotation":[0,0,0,1],"scale":[0.6825000000000001,0.6825000000000001,6.825000000000001],"mesh":17},{"name":"turret_01_muzzle","translation":[-1.0374,0,13.923000000000002],"rotation":[0,0,0,1],"extras":{"socket":"muzzle"}},{"name":"turret_02_yaw","translation":[-17.55,15.600000000000001,15.600000000000001],"rotation":[0,0,0,1],"extras":{"joint":"yaw"},"children":[557,558]},{"name":"turret_02_pitch","translation":[0,0.8190000000000001,0],"rotation":[0,0,0,1],"extras":{"joint":"pitch"},"children":[559,560,561]},{"name":"turret_02_base","translation":[0,0,0],"rotation":[0,0,0,1],"scale":[3.4125000000000005,1.6926000000000003,3.4125000000000005],"mesh":4},{"name":"turret_02_fang_-1","translation":[-1.0374,0,7.098000000000002],"rotation":[0,0,0,1],"scale":[0.6825000000000001,0.6825000000000001,6.825000000000001],"mesh":17},{"name":"turret_02_fang_1","translation":[1.0374,0,7.098000000000002],"rotation":[0,0,0,1],"scale":[0.6825000000000001,0.6825000000000001,6.825000000000001],"mesh":17},{"name":"turret_02_muzzle","translation":[-1.0374,0,13.923000000000002],"rotation":[0,0,0,1],"extras":{"socket":"muzzle"}},{"name":"turret_03_yaw","translation":[17.55,15.600000000000001,2.34],"rotation":[0,0,0,1],"extras":{"joint":"yaw"},"children":[563,564]},{"name":"turret_03_pitch","translation":[0,0.8190000000000001,0],"rotation":[0,0,0,1],"extras":{"joint":"pitch"},"children":[565,566,567]},{"name":"turret_03_base","translation":[0,0,0],"rotation":[0,0,0,1],"scale":[3.4125000000000005,1.6926000000000003,3.4125000000000005],"mesh":4},{"name":"turret_03_fang_-1","translation":[-1.0374,0,7.098000000000002],"rotation":[0,0,0,1],"scale":[0.6825000000000001,0.6825000000000001,6.825000000000001],"mesh":17},{"name":"turret_03_fang_1","translation":[1.0374,0,7.098000000000002],"rotation":[0,0,0,1],"scale":[0.6825000000000001,0.6825000000000001,6.825000000000001],"mesh":17},{"name":"turret_03_muzzle","translation":[-1.0374,0,13.923000000000002],"rotation":[0,0,0,1],"extras":{"socket":"muzzle"}},{"name":"turret_04_yaw","translation":[-17.55,15.600000000000001,2.34],"rotation":[0,0,0,1],"extras":{"joint":"yaw"},"children":[569,570]},{"name":"turret_04_pitch","translation":[0,0.8190000000000001,0],"rotation":[0,0,0,1],"extras":{"joint":"pitch"},"children":[571,572,573]},{"name":"turret_04_base","translation":[0,0,0],"rotation":[0,0,0,1],"scale":[3.4125000000000005,1.6926000000000003,3.4125000000000005],"mesh":4},{"name":"turret_04_fang_-1","translation":[-1.0374,0,7.098000000000002],"rotation":[0,0,0,1],"scale":[0.6825000000000001,0.6825000000000001,6.825000000000001],"mesh":17},{"name":"turret_04_fang_1","translation":[1.0374,0,7.098000000000002],"rotation":[0,0,0,1],"scale":[0.6825000000000001,0.6825000000000001,6.825000000000001],"mesh":17},{"name":"turret_04_muzzle","translation":[-1.0374,0,13.923000000000002],"rotation":[0,0,0,1],"extras":{"socket":"muzzle"}},{"name":"turret_05_yaw","translation":[17.55,15.600000000000001,-10.920000000000002],"rotation":[0,0,0,1],"extras":{"joint":"yaw"},"children":[575,576]},{"name":"turret_05_pitch","translation":[0,0.8190000000000001,0],"rotation":[0,0,0,1],"extras":{"joint":"pitch"},"children":[577,578,579]},{"name":"turret_05_base","translation":[0,0,0],"rotation":[0,0,0,1],"scale":[3.4125000000000005,1.6926000000000003,3.4125000000000005],"mesh":4},{"name":"turret_05_fang_-1","translation":[-1.0374,0,7.098000000000002],"rotation":[0,0,0,1],"scale":[0.6825000000000001,0.6825000000000001,6.825000000000001],"mesh":17},{"name":"turret_05_fang_1","translation":[1.0374,0,7.098000000000002],"rotation":[0,0,0,1],"scale":[0.6825000000000001,0.6825000000000001,6.825000000000001],"mesh":17},{"name":"turret_05_muzzle","translation":[-1.0374,0,13.923000000000002],"rotation":[0,0,0,1],"extras":{"socket":"muzzle"}},{"name":"turret_06_yaw","translation":[-17.55,15.600000000000001,-10.920000000000002],"rotation":[0,0,0,1],"extras":{"joint":"yaw"},"children":[581,582]},{"name":"turret_06_pitch","translation":[0,0.8190000000000001,0],"rotation":[0,0,0,1],"extras":{"joint":"pitch"},"children":[583,584,585]},{"name":"turret_06_base","translation":[0,0,0],"rotation":[0,0,0,1],"scale":[3.4125000000000005,1.6926000000000003,3.4125000000000005],"mesh":4},{"name":"turret_06_fang_-1","translation":[-1.0374,0,7.098000000000002],"rotation":[0,0,0,1],"scale":[0.6825000000000001,0.6825000000000001,6.825000000000001],"mesh":17},{"name":"turret_06_fang_1","translation":[1.0374,0,7.098000000000002],"rotation":[0,0,0,1],"scale":[0.6825000000000001,0.6825000000000001,6.825000000000001],"mesh":17},{"name":"turret_06_muzzle","translation":[-1.0374,0,13.923000000000002],"rotation":[0,0,0,1],"extras":{"socket":"muzzle"}},{"name":"turret_07_yaw","translation":[17.55,15.600000000000001,-24.18],"rotation":[0,0,0,1],"extras":{"joint":"yaw"},"children":[587,588]},{"name":"turret_07_pitch","translation":[0,0.8190000000000001,0],"rotation":[0,0,0,1],"extras":{"joint":"pitch"},"children":[589,590,591]},{"name":"turret_07_base","translation":[0,0,0],"rotation":[0,0,0,1],"scale":[3.4125000000000005,1.6926000000000003,3.4125000000000005],"mesh":4},{"name":"turret_07_fang_-1","translation":[-1.0374,0,7.098000000000002],"rotation":[0,0,0,1],"scale":[0.6825000000000001,0.6825000000000001,6.825000000000001],"mesh":17},{"name":"turret_07_fang_1","translation":[1.0374,0,7.098000000000002],"rotation":[0,0,0,1],"scale":[0.6825000000000001,0.6825000000000001,6.825000000000001],"mesh":17},{"name":"turret_07_muzzle","translation":[-1.0374,0,13.923000000000002],"rotation":[0,0,0,1],"extras":{"socket":"muzzle"}},{"name":"muzzle_01","translation":[0,0,-42.120000000000005],"rotation":[0,0,0,1],"extras":{"socket":"muzzle"}},{"name":"engine_main_01","translation":[0,0,40.56],"rotation":[0,0,0,1],"extras":{"socket":"engine","color":"#b7ff4a"}},{"name":"shield_socket","translation":[0,0,0],"rotation":[0,0,0,1],"extras":{"socket":"shield","radius":52.650000000000006}},{"name":"camera_focus","translation":[0,0,0],"rotation":[0,0,0,1],"extras":{"socket":"camera"}},{"name":"damage_socket_1","translation":[-16.38,0,-39],"rotation":[0,0,0,1],"extras":{"socket":"damage"}},{"name":"damage_socket_2","translation":[0,8.58,0],"rotation":[0,0,0,1],"extras":{"socket":"damage"}},{"name":"damage_socket_3","translation":[16.38,0,39],"rotation":[0,0,0,1],"extras":{"socket":"damage"}}],"meshes":[{"name":"voidHull_void_hull","primitives":[{"attributes":{"POSITION":0,"NORMAL":1},"indices":2,"material":0}],"extras":{"triangles":100}},{"name":"cone_void_armor","primitives":[{"attributes":{"POSITION":3,"NORMAL":4},"indices":5,"material":1}],"extras":{"triangles":64}},{"name":"cyl12_void_dark","primitives":[{"attributes":{"POSITION":6,"NORMAL":7},"indices":8,"material":2}],"extras":{"triangles":48}},{"name":"box_void_glow","primitives":[{"attributes":{"POSITION":9,"NORMAL":10},"indices":11,"material":3}],"extras":{"triangles":12}},{"name":"sphereLow_void_armor","primitives":[{"attributes":{"POSITION":12,"NORMAL":13},"indices":14,"material":1}],"extras":{"triangles":192}},{"name":"cone_void_glow","primitives":[{"attributes":{"POSITION":3,"NORMAL":4},"indices":5,"material":3}],"extras":{"triangles":64}},{"name":"torus_void_glow","primitives":[{"attributes":{"POSITION":15,"NORMAL":16},"indices":17,"material":3}],"extras":{"triangles":720}},{"name":"cyl12_void_hull","primitives":[{"attributes":{"POSITION":6,"NORMAL":7},"indices":8,"material":0}],"extras":{"triangles":48}},{"name":"box_void_armor","primitives":[{"attributes":{"POSITION":9,"NORMAL":10},"indices":11,"material":1}],"extras":{"triangles":12}},{"name":"sphere_void_hull","primitives":[{"attributes":{"POSITION":18,"NORMAL":19},"indices":20,"material":0}],"extras":{"triangles":480}},{"name":"sphereLow_void_core","primitives":[{"attributes":{"POSITION":12,"NORMAL":13},"indices":14,"material":5}],"extras":{"triangles":192}},{"name":"torus_void_core","primitives":[{"attributes":{"POSITION":15,"NORMAL":16},"indices":17,"material":5}],"extras":{"triangles":720}},{"name":"cone_void_hull","primitives":[{"attributes":{"POSITION":3,"NORMAL":4},"indices":5,"material":0}],"extras":{"triangles":64}},{"name":"dreadHull_void_hull","primitives":[{"attributes":{"POSITION":21,"NORMAL":22},"indices":23,"material":0}],"extras":{"triangles":192}},{"name":"sphereLow_void_boss","primitives":[{"attributes":{"POSITION":12,"NORMAL":13},"indices":14,"material":4}],"extras":{"triangles":192}},{"name":"torus_void_boss","primitives":[{"attributes":{"POSITION":15,"NORMAL":16},"indices":17,"material":4}],"extras":{"triangles":720}},{"name":"cone_void_dark","primitives":[{"attributes":{"POSITION":3,"NORMAL":4},"indices":5,"material":2}],"extras":{"triangles":64}},{"name":"cone_void_boss","primitives":[{"attributes":{"POSITION":3,"NORMAL":4},"indices":5,"material":4}],"extras":{"triangles":64}}],"materials":[{"name":"void_hull","pbrMetallicRoughness":{"baseColorFactor":[0.12,0.035,0.09,1],"metallicFactor":0.88,"roughnessFactor":0.25},"emissiveFactor":[0,0,0],"doubleSided":false,"alphaMode":"OPAQUE","extras":{"role":"hull","index":0}},{"name":"void_armor","pbrMetallicRoughness":{"baseColorFactor":[0.36,0.09,0.18,1],"metallicFactor":0.9,"roughnessFactor":0.31},"emissiveFactor":[0,0,0],"doubleSided":false,"alphaMode":"OPAQUE","extras":{"role":"armor","index":1}},{"name":"void_dark","pbrMetallicRoughness":{"baseColorFactor":[0.012,0.006,0.02,1],"metallicFactor":0.82,"roughnessFactor":0.18},"emissiveFactor":[0,0,0],"doubleSided":false,"alphaMode":"OPAQUE","extras":{"role":"shadow","index":2}},{"name":"void_glow","pbrMetallicRoughness":{"baseColorFactor":[0.18,1,0.38,1],"metallicFactor":0.22,"roughnessFactor":0.12},"emissiveFactor":[0.05,0.8,0.18],"doubleSided":false,"alphaMode":"OPAQUE","extras":{"role":"energy","index":3}},{"name":"void_boss","pbrMetallicRoughness":{"baseColorFactor":[0.61,1,0.12,1],"metallicFactor":0.2,"roughnessFactor":0.1},"emissiveFactor":[0.42,0.85,0.03],"doubleSided":false,"alphaMode":"OPAQUE","extras":{"role":"boss-energy","index":4}},{"name":"void_core","pbrMetallicRoughness":{"baseColorFactor":[0.62,0.08,0.9,1],"metallicFactor":0.28,"roughnessFactor":0.13},"emissiveFactor":[0.4,0.02,0.75],"doubleSided":false,"alphaMode":"OPAQUE","extras":{"role":"singularity","index":5}}],"accessors":[{"bufferView":0,"componentType":5126,"count":52,"type":"VEC3","min":[-1,-0.6657395362854004,-1],"max":[1,0.6657395362854004,1]},{"bufferView":1,"componentType":5126,"count":52,"type":"VEC3"},{"bufferView":2,"componentType":5125,"count":300,"type":"SCALAR"},{"bufferView":3,"componentType":5126,"count":68,"type":"VEC3","min":[-1,-1,-1],"max":[1,1,1]},{"bufferView":4,"componentType":5126,"count":68,"type":"VEC3"},{"bufferView":5,"componentType":5125,"count":192,"type":"SCALAR"},{"bufferView":6,"componentType":5126,"count":52,"type":"VEC3","min":[-1,-1,-1],"max":[1,1,1]},{"bufferView":7,"componentType":5126,"count":52,"type":"VEC3"},{"bufferView":8,"componentType":5125,"count":144,"type":"SCALAR"},{"bufferView":9,"componentType":5126,"count":24,"type":"VEC3","min":[-1,-1,-1],"max":[1,1,1]},{"bufferView":10,"componentType":5126,"count":24,"type":"VEC3"},{"bufferView":11,"componentType":5125,"count":36,"type":"SCALAR"},{"bufferView":12,"componentType":5126,"count":117,"type":"VEC3","min":[-1,-1,-1],"max":[1,1,1]},{"bufferView":13,"componentType":5126,"count":117,"type":"VEC3"},{"bufferView":14,"componentType":5125,"count":576,"type":"SCALAR"},{"bufferView":15,"componentType":5126,"count":407,"type":"VEC3","min":[-1.159999966621399,-1.159999966621399,-0.15216904878616333],"max":[1.159999966621399,1.159999966621399,0.15216904878616333]},{"bufferView":16,"componentType":5126,"count":407,"type":"VEC3"},{"bufferView":17,"componentType":5125,"count":2160,"type":"SCALAR"},{"bufferView":18,"componentType":5126,"count":273,"type":"VEC3","min":[-1,-1,-1],"max":[1,1,1]},{"bufferView":19,"componentType":5126,"count":273,"type":"VEC3"},{"bufferView":20,"componentType":5125,"count":1440,"type":"SCALAR"},{"bufferView":21,"componentType":5126,"count":98,"type":"VEC3","min":[-1,-0.699999988079071,-1],"max":[1,0.699999988079071,1]},{"bufferView":22,"componentType":5126,"count":98,"type":"VEC3"},{"bufferView":23,"componentType":5125,"count":576,"type":"SCALAR"}],"bufferViews":[{"buffer":0,"byteOffset":0,"byteLength":624,"target":34962},{"buffer":0,"byteOffset":624,"byteLength":624,"target":34962},{"buffer":0,"byteOffset":1248,"byteLength":1200,"target":34963},{"buffer":0,"byteOffset":2448,"byteLength":816,"target":34962},{"buffer":0,"byteOffset":3264,"byteLength":816,"target":34962},{"buffer":0,"byteOffset":4080,"byteLength":768,"target":34963},{"buffer":0,"byteOffset":4848,"byteLength":624,"target":34962},{"buffer":0,"byteOffset":5472,"byteLength":624,"target":34962},{"buffer":0,"byteOffset":6096,"byteLength":576,"target":34963},{"buffer":0,"byteOffset":6672,"byteLength":288,"target":34962},{"buffer":0,"byteOffset":6960,"byteLength":288,"target":34962},{"buffer":0,"byteOffset":7248,"byteLength":144,"target":34963},{"buffer":0,"byteOffset":7392,"byteLength":1404,"target":34962},{"buffer":0,"byteOffset":8796,"byteLength":1404,"target":34962},{"buffer":0,"byteOffset":10200,"byteLength":2304,"target":34963},{"buffer":0,"byteOffset":12504,"byteLength":4884,"target":34962},{"buffer":0,"byteOffset":17388,"byteLength":4884,"target":34962},{"buffer":0,"byteOffset":22272,"byteLength":8640,"target":34963},{"buffer":0,"byteOffset":30912,"byteLength":3276,"target":34962},{"buffer":0,"byteOffset":34188,"byteLength":3276,"target":34962},{"buffer":0,"byteOffset":37464,"byteLength":5760,"target":34963},{"buffer":0,"byteOffset":43224,"byteLength":1176,"target":34962},{"buffer":0,"byteOffset":44400,"byteLength":1176,"target":34962},{"buffer":0,"byteOffset":45576,"byteLength":2304,"target":34963}],"buffers":[{"byteLength":47880,"uri":"data:application/octet-stream;base64,"}],"extras":{"family":"void","prefix":"enemy_","models":["swarm","interceptor","corvette","armored","bomber","shield","jammer","carrier","repair","voidturret","voidyard","terraformer","overseer","leviathan","eclipse","sovereign","worldeater"],"units":"game-space","fallback":"procedural HTML","artDirection":"original asymmetric biomechanical space-RTS silhouettes"}}