{"asset":{"version":"2.0","generator":"Orbital Siege HQ Model Forge 1.0","copyright":"Original models generated for Orbital Siege","extras":{"package":"Orbital Siege · HQ Turrets","contractVersion":1}},"scene":0,"scenes":[{"name":"Orbital Siege · HQ Turrets","nodes":[0,17,42,61,81,101,125,146,166,188,207,227,249,269,290,311,331,354,376],"extras":{"family":"tower","prefix":"tower_","models":["blaster","gatling","flak","laser","cryo","missile","tesla","plasma","railgun","artillery","gravity","phase","antimatter","ionarray","photon","solar","helium3","laboratory","shipyard"],"units":"game-space","fallback":"procedural HTML"}}],"nodes":[{"name":"tower_blaster","extras":{"kind":"tower","key":"blaster","lod":"high","forward":"+Z","up":"+Y"},"children":[1,2,3,4,5,6,7,8,9,10,15,16]},{"name":"head","translation":[0,0,4.2],"rotation":[0,0,0,1],"children":[11,12,13,14]},{"name":"pedestal","translation":[0,0,0],"rotation":[0,0,0,1],"scale":[7,7,2.1],"mesh":0},{"name":"pedestal_armor","translation":[0,0,1.4],"rotation":[0,0,0,1],"scale":[5.7,5.7,1.2],"mesh":1},{"name":"base_energy_ring","translation":[0,0,0.3],"rotation":[0,0,0,1],"scale":[6.2,6.2,1.8],"mesh":2},{"name":"base_greeble_1","translation":[5.2,0,2.5],"rotation":[0,0,0,1],"scale":[1.25,0.55,1.3],"mesh":3},{"name":"base_greeble_2","translation":[2.6000000000000005,4.50333209967908,2.5],"rotation":[0,0,0.49999999999999994,0.8660254037844387],"scale":[1.25,0.55,1.3],"mesh":4},{"name":"base_greeble_3","translation":[-2.5999999999999988,4.503332099679081,2.5],"rotation":[0,0,0.8660254037844386,0.5000000000000001],"scale":[1.25,0.55,1.3],"mesh":3},{"name":"base_greeble_4","translation":[-5.2,6.368163355566237e-16,2.5],"rotation":[0,0,1,6.123233995736766e-17],"scale":[1.25,0.55,1.3],"mesh":4},{"name":"base_greeble_5","translation":[-2.6000000000000023,-4.50333209967908,2.5],"rotation":[0,0,0.8660254037844387,-0.4999999999999998],"scale":[1.25,0.55,1.3],"mesh":3},{"name":"base_greeble_6","translation":[2.6000000000000005,-4.50333209967908,2.5],"rotation":[0,0,0.49999999999999994,-0.8660254037844387],"scale":[1.25,0.55,1.3],"mesh":4},{"name":"weapon_housing","translation":[0,0,3],"rotation":[0,0,0,1],"scale":[4,3,5],"mesh":3},{"name":"primary_barrel","translation":[0,0,11],"rotation":[0,0,0,1],"scale":[0.9,0.9,7.5],"mesh":5},{"name":"barrel_collar","translation":[0,0,7.5],"rotation":[0,0,0,1],"scale":[2.1,2.1,1.3],"mesh":6},{"name":"muzzle_01","translation":[0,0,19],"rotation":[0,0,0,1],"extras":{"socket":"muzzle"}},{"name":"shield_socket","translation":[0,0,6],"rotation":[0,0,0,1],"extras":{"socket":"shield"}},{"name":"camera_focus","translation":[0,0,8],"rotation":[0,0,0,1],"extras":{"socket":"camera"}},{"name":"tower_gatling","extras":{"kind":"tower","key":"gatling","lod":"high","forward":"+Z","up":"+Y"},"children":[18,19,20,21,22,23,24,25,26,27,40,41]},{"name":"head","translation":[0,0,4.2],"rotation":[0,0,0,1],"children":[28,29]},{"name":"pedestal","translation":[0,0,0],"rotation":[0,0,0,1],"scale":[7,7,2.1],"mesh":0},{"name":"pedestal_armor","translation":[0,0,1.4],"rotation":[0,0,0,1],"scale":[5.7,5.7,1.2],"mesh":1},{"name":"base_energy_ring","translation":[0,0,0.3],"rotation":[0,0,0,1],"scale":[6.2,6.2,1.8],"mesh":2},{"name":"base_greeble_1","translation":[5.2,0,2.5],"rotation":[0,0,0,1],"scale":[1.25,0.55,1.3],"mesh":3},{"name":"base_greeble_2","translation":[2.6000000000000005,4.50333209967908,2.5],"rotation":[0,0,0.49999999999999994,0.8660254037844387],"scale":[1.25,0.55,1.3],"mesh":4},{"name":"base_greeble_3","translation":[-2.5999999999999988,4.503332099679081,2.5],"rotation":[0,0,0.8660254037844386,0.5000000000000001],"scale":[1.25,0.55,1.3],"mesh":3},{"name":"base_greeble_4","translation":[-5.2,6.368163355566237e-16,2.5],"rotation":[0,0,1,6.123233995736766e-17],"scale":[1.25,0.55,1.3],"mesh":4},{"name":"base_greeble_5","translation":[-2.6000000000000023,-4.50333209967908,2.5],"rotation":[0,0,0.8660254037844387,-0.4999999999999998],"scale":[1.25,0.55,1.3],"mesh":3},{"name":"base_greeble_6","translation":[2.6000000000000005,-4.50333209967908,2.5],"rotation":[0,0,0.49999999999999994,-0.8660254037844387],"scale":[1.25,0.55,1.3],"mesh":4},{"name":"weapon_housing","translation":[0,0,3.5],"rotation":[0,0,0,1],"scale":[3.6,3.1,4.2],"mesh":3},{"name":"rotor_gatling","translation":[0,0,6],"rotation":[0,0,0,1],"children":[30,31,32,33,34,35,36,37,38,39]},{"name":"barrel_1","translation":[2.15,0,7],"rotation":[0,0,0,1],"scale":[0.34,0.34,7],"mesh":7},{"name":"barrel_2","translation":[1.5202795795510773,1.520279579551077,7],"rotation":[0,0,0,1],"scale":[0.34,0.34,7],"mesh":7},{"name":"barrel_3","translation":[1.3164953090834046e-16,2.15,7],"rotation":[0,0,0,1],"scale":[0.34,0.34,7],"mesh":7},{"name":"barrel_4","translation":[-1.520279579551077,1.5202795795510773,7],"rotation":[0,0,0,1],"scale":[0.34,0.34,7],"mesh":7},{"name":"barrel_5","translation":[-2.15,2.632990618166809e-16,7],"rotation":[0,0,0,1],"scale":[0.34,0.34,7],"mesh":7},{"name":"barrel_6","translation":[-1.5202795795510775,-1.520279579551077,7],"rotation":[0,0,0,1],"scale":[0.34,0.34,7],"mesh":7},{"name":"barrel_7","translation":[-3.949485927250214e-16,-2.15,7],"rotation":[0,0,0,1],"scale":[0.34,0.34,7],"mesh":7},{"name":"barrel_8","translation":[1.5202795795510768,-1.5202795795510775,7],"rotation":[0,0,0,1],"scale":[0.34,0.34,7],"mesh":7},{"name":"rotor_collar","translation":[0,0,1],"rotation":[0,0,0,1],"scale":[2.8,2.8,1.5],"mesh":6},{"name":"muzzle_01","translation":[0,0,14],"rotation":[0,0,0,1],"extras":{"socket":"muzzle"}},{"name":"shield_socket","translation":[0,0,6],"rotation":[0,0,0,1],"extras":{"socket":"shield"}},{"name":"camera_focus","translation":[0,0,8],"rotation":[0,0,0,1],"extras":{"socket":"camera"}},{"name":"tower_flak","extras":{"kind":"tower","key":"flak","lod":"high","forward":"+Z","up":"+Y"},"children":[43,44,45,46,47,48,49,50,51,52,59,60]},{"name":"head","translation":[0,0,4.2],"rotation":[0,0,0,1],"children":[53,54,55,56,57,58]},{"name":"pedestal","translation":[0,0,0],"rotation":[0,0,0,1],"scale":[7,7,2.1],"mesh":0},{"name":"pedestal_armor","translation":[0,0,1.4],"rotation":[0,0,0,1],"scale":[5.7,5.7,1.2],"mesh":1},{"name":"base_energy_ring","translation":[0,0,0.3],"rotation":[0,0,0,1],"scale":[6.2,6.2,1.8],"mesh":2},{"name":"base_greeble_1","translation":[5.2,0,2.5],"rotation":[0,0,0,1],"scale":[1.25,0.55,1.3],"mesh":3},{"name":"base_greeble_2","translation":[2.6000000000000005,4.50333209967908,2.5],"rotation":[0,0,0.49999999999999994,0.8660254037844387],"scale":[1.25,0.55,1.3],"mesh":4},{"name":"base_greeble_3","translation":[-2.5999999999999988,4.503332099679081,2.5],"rotation":[0,0,0.8660254037844386,0.5000000000000001],"scale":[1.25,0.55,1.3],"mesh":3},{"name":"base_greeble_4","translation":[-5.2,6.368163355566237e-16,2.5],"rotation":[0,0,1,6.123233995736766e-17],"scale":[1.25,0.55,1.3],"mesh":4},{"name":"base_greeble_5","translation":[-2.6000000000000023,-4.50333209967908,2.5],"rotation":[0,0,0.8660254037844387,-0.4999999999999998],"scale":[1.25,0.55,1.3],"mesh":3},{"name":"base_greeble_6","translation":[2.6000000000000005,-4.50333209967908,2.5],"rotation":[0,0,0.49999999999999994,-0.8660254037844387],"scale":[1.25,0.55,1.3],"mesh":4},{"name":"weapon_housing","translation":[0,0,3.7],"rotation":[0,0,0,1],"scale":[4.8,3.7,4.5],"mesh":3},{"name":"flak_barrel_-2.2_-0.85","translation":[-2.2,-0.85,10],"rotation":[0,0,0,1],"scale":[0.65,0.65,7.5],"mesh":8},{"name":"flak_barrel_-2.2_0.85","translation":[-2.2,0.85,10],"rotation":[0,0,0,1],"scale":[0.65,0.65,7.5],"mesh":8},{"name":"flak_barrel_2.2_-0.85","translation":[2.2,-0.85,10],"rotation":[0,0,0,1],"scale":[0.65,0.65,7.5],"mesh":8},{"name":"flak_barrel_2.2_0.85","translation":[2.2,0.85,10],"rotation":[0,0,0,1],"scale":[0.65,0.65,7.5],"mesh":8},{"name":"muzzle_01","translation":[0,0,18],"rotation":[0,0,0,1],"extras":{"socket":"muzzle"}},{"name":"shield_socket","translation":[0,0,6],"rotation":[0,0,0,1],"extras":{"socket":"shield"}},{"name":"camera_focus","translation":[0,0,8],"rotation":[0,0,0,1],"extras":{"socket":"camera"}},{"name":"tower_laser","extras":{"kind":"tower","key":"laser","lod":"high","forward":"+Z","up":"+Y"},"children":[62,63,64,65,66,67,68,69,70,71,79,80]},{"name":"head","translation":[0,0,4.2],"rotation":[0,0,0,1],"children":[72,73,74,75,76,77,78]},{"name":"pedestal","translation":[0,0,0],"rotation":[0,0,0,1],"scale":[7,7,2.1],"mesh":0},{"name":"pedestal_armor","translation":[0,0,1.4],"rotation":[0,0,0,1],"scale":[5.7,5.7,1.2],"mesh":1},{"name":"base_energy_ring","translation":[0,0,0.3],"rotation":[0,0,0,1],"scale":[6.2,6.2,1.8],"mesh":2},{"name":"base_greeble_1","translation":[5.2,0,2.5],"rotation":[0,0,0,1],"scale":[1.25,0.55,1.3],"mesh":3},{"name":"base_greeble_2","translation":[2.6000000000000005,4.50333209967908,2.5],"rotation":[0,0,0.49999999999999994,0.8660254037844387],"scale":[1.25,0.55,1.3],"mesh":4},{"name":"base_greeble_3","translation":[-2.5999999999999988,4.503332099679081,2.5],"rotation":[0,0,0.8660254037844386,0.5000000000000001],"scale":[1.25,0.55,1.3],"mesh":3},{"name":"base_greeble_4","translation":[-5.2,6.368163355566237e-16,2.5],"rotation":[0,0,1,6.123233995736766e-17],"scale":[1.25,0.55,1.3],"mesh":4},{"name":"base_greeble_5","translation":[-2.6000000000000023,-4.50333209967908,2.5],"rotation":[0,0,0.8660254037844387,-0.4999999999999998],"scale":[1.25,0.55,1.3],"mesh":3},{"name":"base_greeble_6","translation":[2.6000000000000005,-4.50333209967908,2.5],"rotation":[0,0,0.49999999999999994,-0.8660254037844387],"scale":[1.25,0.55,1.3],"mesh":4},{"name":"weapon_housing","translation":[0,0,3.5],"rotation":[0,0,0,1],"scale":[4.5,3.5,4.5],"mesh":3},{"name":"energy_core","translation":[0,0,8],"rotation":[0,0,0,1],"scale":[2.8,2.8,2.8],"mesh":9},{"name":"focus_ring_1","translation":[0,0,7],"rotation":[0,0,0,1],"scale":[3.7,3.7,1.35],"mesh":2},{"name":"focus_ring_2","translation":[0,0,9.4],"rotation":[0.19672554931012948,0.1367615428306849,0.02772293720342897,0.9704776027317752],"scale":[4.25,4.25,1.35],"mesh":2},{"name":"focus_ring_3","translation":[0,0,11.8],"rotation":[0.37425261565369394,0.2545404083647746,0.10761795855146918,0.8851906773023971],"scale":[4.800000000000001,4.800000000000001,1.35],"mesh":2},{"name":"emitter_0","translation":[0,0,15],"rotation":[0,0,0,1],"scale":[0.7,0.7,6],"mesh":7},{"name":"muzzle_01","translation":[0,0,21],"rotation":[0,0,0,1],"extras":{"socket":"muzzle","energy":"laser"}},{"name":"shield_socket","translation":[0,0,6],"rotation":[0,0,0,1],"extras":{"socket":"shield"}},{"name":"camera_focus","translation":[0,0,8],"rotation":[0,0,0,1],"extras":{"socket":"camera"}},{"name":"tower_cryo","extras":{"kind":"tower","key":"cryo","lod":"high","forward":"+Z","up":"+Y"},"children":[82,83,84,85,86,87,88,89,90,91,99,100]},{"name":"head","translation":[0,0,4.2],"rotation":[0,0,0,1],"children":[92,93,94,95,96,97,98]},{"name":"pedestal","translation":[0,0,0],"rotation":[0,0,0,1],"scale":[7,7,2.1],"mesh":0},{"name":"pedestal_armor","translation":[0,0,1.4],"rotation":[0,0,0,1],"scale":[5.7,5.7,1.2],"mesh":1},{"name":"base_energy_ring","translation":[0,0,0.3],"rotation":[0,0,0,1],"scale":[6.2,6.2,1.8],"mesh":2},{"name":"base_greeble_1","translation":[5.2,0,2.5],"rotation":[0,0,0,1],"scale":[1.25,0.55,1.3],"mesh":3},{"name":"base_greeble_2","translation":[2.6000000000000005,4.50333209967908,2.5],"rotation":[0,0,0.49999999999999994,0.8660254037844387],"scale":[1.25,0.55,1.3],"mesh":4},{"name":"base_greeble_3","translation":[-2.5999999999999988,4.503332099679081,2.5],"rotation":[0,0,0.8660254037844386,0.5000000000000001],"scale":[1.25,0.55,1.3],"mesh":3},{"name":"base_greeble_4","translation":[-5.2,6.368163355566237e-16,2.5],"rotation":[0,0,1,6.123233995736766e-17],"scale":[1.25,0.55,1.3],"mesh":4},{"name":"base_greeble_5","translation":[-2.6000000000000023,-4.50333209967908,2.5],"rotation":[0,0,0.8660254037844387,-0.4999999999999998],"scale":[1.25,0.55,1.3],"mesh":3},{"name":"base_greeble_6","translation":[2.6000000000000005,-4.50333209967908,2.5],"rotation":[0,0,0.49999999999999994,-0.8660254037844387],"scale":[1.25,0.55,1.3],"mesh":4},{"name":"weapon_housing","translation":[0,0,3.5],"rotation":[0,0,0,1],"scale":[4.5,3.5,4.5],"mesh":3},{"name":"energy_core","translation":[0,0,8],"rotation":[0,0,0,1],"scale":[2.8,2.8,2.8],"mesh":9},{"name":"focus_ring_1","translation":[0,0,7],"rotation":[0,0,0,1],"scale":[3.7,3.7,1.35],"mesh":2},{"name":"focus_ring_2","translation":[0,0,9.4],"rotation":[0.19672554931012948,0.1367615428306849,0.02772293720342897,0.9704776027317752],"scale":[4.25,4.25,1.35],"mesh":2},{"name":"focus_ring_3","translation":[0,0,11.8],"rotation":[0.37425261565369394,0.2545404083647746,0.10761795855146918,0.8851906773023971],"scale":[4.800000000000001,4.800000000000001,1.35],"mesh":2},{"name":"emitter_0","translation":[0,0,15],"rotation":[0,0,0,1],"scale":[0.7,0.7,6],"mesh":7},{"name":"muzzle_01","translation":[0,0,21],"rotation":[0,0,0,1],"extras":{"socket":"muzzle","energy":"cryo"}},{"name":"shield_socket","translation":[0,0,6],"rotation":[0,0,0,1],"extras":{"socket":"shield"}},{"name":"camera_focus","translation":[0,0,8],"rotation":[0,0,0,1],"extras":{"socket":"camera"}},{"name":"tower_missile","extras":{"kind":"tower","key":"missile","lod":"high","forward":"+Z","up":"+Y"},"children":[102,103,104,105,106,107,108,109,110,111,123,124]},{"name":"head","translation":[0,0,4.2],"rotation":[0,0,0,1],"children":[112,113,114,115,116,117,118,119,120,121,122]},{"name":"pedestal","translation":[0,0,0],"rotation":[0,0,0,1],"scale":[7,7,2.1],"mesh":0},{"name":"pedestal_armor","translation":[0,0,1.4],"rotation":[0,0,0,1],"scale":[5.7,5.7,1.2],"mesh":1},{"name":"base_energy_ring","translation":[0,0,0.3],"rotation":[0,0,0,1],"scale":[6.2,6.2,1.8],"mesh":10},{"name":"base_greeble_1","translation":[5.2,0,2.5],"rotation":[0,0,0,1],"scale":[1.25,0.55,1.3],"mesh":3},{"name":"base_greeble_2","translation":[2.6000000000000005,4.50333209967908,2.5],"rotation":[0,0,0.49999999999999994,0.8660254037844387],"scale":[1.25,0.55,1.3],"mesh":4},{"name":"base_greeble_3","translation":[-2.5999999999999988,4.503332099679081,2.5],"rotation":[0,0,0.8660254037844386,0.5000000000000001],"scale":[1.25,0.55,1.3],"mesh":3},{"name":"base_greeble_4","translation":[-5.2,6.368163355566237e-16,2.5],"rotation":[0,0,1,6.123233995736766e-17],"scale":[1.25,0.55,1.3],"mesh":4},{"name":"base_greeble_5","translation":[-2.6000000000000023,-4.50333209967908,2.5],"rotation":[0,0,0.8660254037844387,-0.4999999999999998],"scale":[1.25,0.55,1.3],"mesh":3},{"name":"base_greeble_6","translation":[2.6000000000000005,-4.50333209967908,2.5],"rotation":[0,0,0.49999999999999994,-0.8660254037844387],"scale":[1.25,0.55,1.3],"mesh":4},{"name":"weapon_housing","translation":[0,0,4.5],"rotation":[0,0,0,1],"scale":[5.5,4.2,5.2],"mesh":3},{"name":"missile_tube_1_1","translation":[-2.7,-2,9],"rotation":[0,0,0,1],"scale":[0.72,0.72,3.5],"mesh":8},{"name":"missile_tube_2_1","translation":[0,-2,9],"rotation":[0,0,0,1],"scale":[0.72,0.72,3.5],"mesh":8},{"name":"missile_tube_3_1","translation":[2.7,-2,9],"rotation":[0,0,0,1],"scale":[0.72,0.72,3.5],"mesh":8},{"name":"missile_tube_1_2","translation":[-2.7,0,9],"rotation":[0,0,0,1],"scale":[0.72,0.72,3.5],"mesh":8},{"name":"missile_tube_2_2","translation":[0,0,9],"rotation":[0,0,0,1],"scale":[0.72,0.72,3.5],"mesh":8},{"name":"missile_tube_3_2","translation":[2.7,0,9],"rotation":[0,0,0,1],"scale":[0.72,0.72,3.5],"mesh":8},{"name":"missile_tube_1_3","translation":[-2.7,2,9],"rotation":[0,0,0,1],"scale":[0.72,0.72,3.5],"mesh":8},{"name":"missile_tube_2_3","translation":[0,2,9],"rotation":[0,0,0,1],"scale":[0.72,0.72,3.5],"mesh":8},{"name":"missile_tube_3_3","translation":[2.7,2,9],"rotation":[0,0,0,1],"scale":[0.72,0.72,3.5],"mesh":8},{"name":"muzzle_01","translation":[0,0,13],"rotation":[0,0,0,1],"extras":{"socket":"muzzle"}},{"name":"shield_socket","translation":[0,0,6],"rotation":[0,0,0,1],"extras":{"socket":"shield"}},{"name":"camera_focus","translation":[0,0,8],"rotation":[0,0,0,1],"extras":{"socket":"camera"}},{"name":"tower_tesla","extras":{"kind":"tower","key":"tesla","lod":"high","forward":"+Z","up":"+Y"},"children":[126,127,128,129,130,131,132,133,134,135,144,145]},{"name":"head","translation":[0,0,4.2],"rotation":[0,0,0,1],"children":[136,137,138,139,140,141,142,143]},{"name":"pedestal","translation":[0,0,0],"rotation":[0,0,0,1],"scale":[7,7,2.1],"mesh":0},{"name":"pedestal_armor","translation":[0,0,1.4],"rotation":[0,0,0,1],"scale":[5.7,5.7,1.2],"mesh":1},{"name":"base_energy_ring","translation":[0,0,0.3],"rotation":[0,0,0,1],"scale":[6.2,6.2,1.8],"mesh":2},{"name":"base_greeble_1","translation":[5.2,0,2.5],"rotation":[0,0,0,1],"scale":[1.25,0.55,1.3],"mesh":3},{"name":"base_greeble_2","translation":[2.6000000000000005,4.50333209967908,2.5],"rotation":[0,0,0.49999999999999994,0.8660254037844387],"scale":[1.25,0.55,1.3],"mesh":4},{"name":"base_greeble_3","translation":[-2.5999999999999988,4.503332099679081,2.5],"rotation":[0,0,0.8660254037844386,0.5000000000000001],"scale":[1.25,0.55,1.3],"mesh":3},{"name":"base_greeble_4","translation":[-5.2,6.368163355566237e-16,2.5],"rotation":[0,0,1,6.123233995736766e-17],"scale":[1.25,0.55,1.3],"mesh":4},{"name":"base_greeble_5","translation":[-2.6000000000000023,-4.50333209967908,2.5],"rotation":[0,0,0.8660254037844387,-0.4999999999999998],"scale":[1.25,0.55,1.3],"mesh":3},{"name":"base_greeble_6","translation":[2.6000000000000005,-4.50333209967908,2.5],"rotation":[0,0,0.49999999999999994,-0.8660254037844387],"scale":[1.25,0.55,1.3],"mesh":4},{"name":"weapon_housing","translation":[0,0,3.5],"rotation":[0,0,0,1],"scale":[4.5,3.5,4.5],"mesh":3},{"name":"energy_core","translation":[0,0,8],"rotation":[0,0,0,1],"scale":[2.8,2.8,2.8],"mesh":9},{"name":"focus_ring_1","translation":[0,0,7],"rotation":[0,0,0,1],"scale":[3.7,3.7,1.35],"mesh":2},{"name":"focus_ring_2","translation":[0,0,9.4],"rotation":[0.19672554931012948,0.1367615428306849,0.02772293720342897,0.9704776027317752],"scale":[4.25,4.25,1.35],"mesh":2},{"name":"focus_ring_3","translation":[0,0,11.8],"rotation":[0.37425261565369394,0.2545404083647746,0.10761795855146918,0.8851906773023971],"scale":[4.800000000000001,4.800000000000001,1.35],"mesh":2},{"name":"emitter_-2.4","translation":[-2.4,0,15],"rotation":[0,0,0,1],"scale":[0.7,0.7,6],"mesh":7},{"name":"emitter_2.4","translation":[2.4,0,15],"rotation":[0,0,0,1],"scale":[0.7,0.7,6],"mesh":7},{"name":"muzzle_01","translation":[0,0,21],"rotation":[0,0,0,1],"extras":{"socket":"muzzle","energy":"tesla"}},{"name":"shield_socket","translation":[0,0,6],"rotation":[0,0,0,1],"extras":{"socket":"shield"}},{"name":"camera_focus","translation":[0,0,8],"rotation":[0,0,0,1],"extras":{"socket":"camera"}},{"name":"tower_plasma","extras":{"kind":"tower","key":"plasma","lod":"high","forward":"+Z","up":"+Y"},"children":[147,148,149,150,151,152,153,154,155,156,164,165]},{"name":"head","translation":[0,0,4.2],"rotation":[0,0,0,1],"children":[157,158,159,160,161,162,163]},{"name":"pedestal","translation":[0,0,0],"rotation":[0,0,0,1],"scale":[7,7,2.1],"mesh":0},{"name":"pedestal_armor","translation":[0,0,1.4],"rotation":[0,0,0,1],"scale":[5.7,5.7,1.2],"mesh":1},{"name":"base_energy_ring","translation":[0,0,0.3],"rotation":[0,0,0,1],"scale":[6.2,6.2,1.8],"mesh":2},{"name":"base_greeble_1","translation":[5.2,0,2.5],"rotation":[0,0,0,1],"scale":[1.25,0.55,1.3],"mesh":3},{"name":"base_greeble_2","translation":[2.6000000000000005,4.50333209967908,2.5],"rotation":[0,0,0.49999999999999994,0.8660254037844387],"scale":[1.25,0.55,1.3],"mesh":4},{"name":"base_greeble_3","translation":[-2.5999999999999988,4.503332099679081,2.5],"rotation":[0,0,0.8660254037844386,0.5000000000000001],"scale":[1.25,0.55,1.3],"mesh":3},{"name":"base_greeble_4","translation":[-5.2,6.368163355566237e-16,2.5],"rotation":[0,0,1,6.123233995736766e-17],"scale":[1.25,0.55,1.3],"mesh":4},{"name":"base_greeble_5","translation":[-2.6000000000000023,-4.50333209967908,2.5],"rotation":[0,0,0.8660254037844387,-0.4999999999999998],"scale":[1.25,0.55,1.3],"mesh":3},{"name":"base_greeble_6","translation":[2.6000000000000005,-4.50333209967908,2.5],"rotation":[0,0,0.49999999999999994,-0.8660254037844387],"scale":[1.25,0.55,1.3],"mesh":4},{"name":"weapon_housing","translation":[0,0,3.5],"rotation":[0,0,0,1],"scale":[4.5,3.5,4.5],"mesh":3},{"name":"energy_core","translation":[0,0,8],"rotation":[0,0,0,1],"scale":[2.8,2.8,2.8],"mesh":9},{"name":"focus_ring_1","translation":[0,0,7],"rotation":[0,0,0,1],"scale":[3.7,3.7,1.35],"mesh":2},{"name":"focus_ring_2","translation":[0,0,9.4],"rotation":[0.19672554931012948,0.1367615428306849,0.02772293720342897,0.9704776027317752],"scale":[4.25,4.25,1.35],"mesh":2},{"name":"focus_ring_3","translation":[0,0,11.8],"rotation":[0.37425261565369394,0.2545404083647746,0.10761795855146918,0.8851906773023971],"scale":[4.800000000000001,4.800000000000001,1.35],"mesh":2},{"name":"emitter_0","translation":[0,0,15],"rotation":[0,0,0,1],"scale":[0.7,0.7,6],"mesh":7},{"name":"muzzle_01","translation":[0,0,21],"rotation":[0,0,0,1],"extras":{"socket":"muzzle","energy":"plasma"}},{"name":"shield_socket","translation":[0,0,6],"rotation":[0,0,0,1],"extras":{"socket":"shield"}},{"name":"camera_focus","translation":[0,0,8],"rotation":[0,0,0,1],"extras":{"socket":"camera"}},{"name":"tower_railgun","extras":{"kind":"tower","key":"railgun","lod":"high","forward":"+Z","up":"+Y"},"children":[167,168,169,170,171,172,173,174,175,176,186,187]},{"name":"head","translation":[0,0,4.2],"rotation":[0,0,0,1],"children":[177,178,179,180,181,182,183,184,185]},{"name":"pedestal","translation":[0,0,0],"rotation":[0,0,0,1],"scale":[7,7,2.1],"mesh":0},{"name":"pedestal_armor","translation":[0,0,1.4],"rotation":[0,0,0,1],"scale":[5.7,5.7,1.2],"mesh":1},{"name":"base_energy_ring","translation":[0,0,0.3],"rotation":[0,0,0,1],"scale":[6.2,6.2,1.8],"mesh":2},{"name":"base_greeble_1","translation":[5.2,0,2.5],"rotation":[0,0,0,1],"scale":[1.25,0.55,1.3],"mesh":3},{"name":"base_greeble_2","translation":[2.6000000000000005,4.50333209967908,2.5],"rotation":[0,0,0.49999999999999994,0.8660254037844387],"scale":[1.25,0.55,1.3],"mesh":4},{"name":"base_greeble_3","translation":[-2.5999999999999988,4.503332099679081,2.5],"rotation":[0,0,0.8660254037844386,0.5000000000000001],"scale":[1.25,0.55,1.3],"mesh":3},{"name":"base_greeble_4","translation":[-5.2,6.368163355566237e-16,2.5],"rotation":[0,0,1,6.123233995736766e-17],"scale":[1.25,0.55,1.3],"mesh":4},{"name":"base_greeble_5","translation":[-2.6000000000000023,-4.50333209967908,2.5],"rotation":[0,0,0.8660254037844387,-0.4999999999999998],"scale":[1.25,0.55,1.3],"mesh":3},{"name":"base_greeble_6","translation":[2.6000000000000005,-4.50333209967908,2.5],"rotation":[0,0,0.49999999999999994,-0.8660254037844387],"scale":[1.25,0.55,1.3],"mesh":4},{"name":"weapon_housing","translation":[0,0,3.4],"rotation":[0,0,0,1],"scale":[4.6,3.3,4.2],"mesh":3},{"name":"rail_-2.2","translation":[-2.2,0,13],"rotation":[0,0,0,1],"scale":[0.72,0.72,10],"mesh":11},{"name":"rail_2.2","translation":[2.2,0,13],"rotation":[0,0,0,1],"scale":[0.72,0.72,10],"mesh":11},{"name":"rail_brace_1","translation":[0,0,7],"rotation":[0,0,0,1],"scale":[3.6,0.42,0.34],"mesh":4},{"name":"rail_brace_2","translation":[0,0,10.6],"rotation":[0,0,0,1],"scale":[3.6,0.42,0.34],"mesh":4},{"name":"rail_brace_3","translation":[0,0,14.2],"rotation":[0,0,0,1],"scale":[3.6,0.42,0.34],"mesh":4},{"name":"rail_brace_4","translation":[0,0,17.8],"rotation":[0,0,0,1],"scale":[3.6,0.42,0.34],"mesh":4},{"name":"rail_brace_5","translation":[0,0,21.4],"rotation":[0,0,0,1],"scale":[3.6,0.42,0.34],"mesh":4},{"name":"muzzle_01","translation":[0,0,24],"rotation":[0,0,0,1],"extras":{"socket":"muzzle"}},{"name":"shield_socket","translation":[0,0,6],"rotation":[0,0,0,1],"extras":{"socket":"shield"}},{"name":"camera_focus","translation":[0,0,8],"rotation":[0,0,0,1],"extras":{"socket":"camera"}},{"name":"tower_artillery","extras":{"kind":"tower","key":"artillery","lod":"high","forward":"+Z","up":"+Y"},"children":[189,190,191,192,193,194,195,196,197,198,205,206]},{"name":"head","translation":[0,0,4.2],"rotation":[0,0,0,1],"children":[199,200,201,202,203,204]},{"name":"pedestal","translation":[0,0,0],"rotation":[0,0,0,1],"scale":[7,7,2.1],"mesh":0},{"name":"pedestal_armor","translation":[0,0,1.4],"rotation":[0,0,0,1],"scale":[5.7,5.7,1.2],"mesh":1},{"name":"base_energy_ring","translation":[0,0,0.3],"rotation":[0,0,0,1],"scale":[6.2,6.2,1.8],"mesh":10},{"name":"base_greeble_1","translation":[5.2,0,2.5],"rotation":[0,0,0,1],"scale":[1.25,0.55,1.3],"mesh":3},{"name":"base_greeble_2","translation":[2.6000000000000005,4.50333209967908,2.5],"rotation":[0,0,0.49999999999999994,0.8660254037844387],"scale":[1.25,0.55,1.3],"mesh":4},{"name":"base_greeble_3","translation":[-2.5999999999999988,4.503332099679081,2.5],"rotation":[0,0,0.8660254037844386,0.5000000000000001],"scale":[1.25,0.55,1.3],"mesh":3},{"name":"base_greeble_4","translation":[-5.2,6.368163355566237e-16,2.5],"rotation":[0,0,1,6.123233995736766e-17],"scale":[1.25,0.55,1.3],"mesh":4},{"name":"base_greeble_5","translation":[-2.6000000000000023,-4.50333209967908,2.5],"rotation":[0,0,0.8660254037844387,-0.4999999999999998],"scale":[1.25,0.55,1.3],"mesh":3},{"name":"base_greeble_6","translation":[2.6000000000000005,-4.50333209967908,2.5],"rotation":[0,0,0.49999999999999994,-0.8660254037844387],"scale":[1.25,0.55,1.3],"mesh":4},{"name":"weapon_housing","translation":[0,0,4.8],"rotation":[0,0,0,1],"scale":[6,4.8,5.8],"mesh":3},{"name":"siege_barrel","translation":[0,0,17],"rotation":[0,0,0,1],"scale":[1.8,1.8,12.5],"mesh":12},{"name":"recoil_ring_1","translation":[0,0,8],"rotation":[0,0,0,1],"scale":[2.8,2.8,1.4],"mesh":6},{"name":"recoil_ring_2","translation":[0,0,12.3],"rotation":[0,0,0,1],"scale":[2.8,2.8,1.4],"mesh":6},{"name":"recoil_ring_3","translation":[0,0,16.6],"rotation":[0,0,0,1],"scale":[2.8,2.8,1.4],"mesh":6},{"name":"muzzle_01","translation":[0,0,30],"rotation":[0,0,0,1],"extras":{"socket":"muzzle"}},{"name":"shield_socket","translation":[0,0,6],"rotation":[0,0,0,1],"extras":{"socket":"shield"}},{"name":"camera_focus","translation":[0,0,8],"rotation":[0,0,0,1],"extras":{"socket":"camera"}},{"name":"tower_gravity","extras":{"kind":"tower","key":"gravity","lod":"high","forward":"+Z","up":"+Y"},"children":[208,209,210,211,212,213,214,215,216,217,225,226]},{"name":"head","translation":[0,0,4.2],"rotation":[0,0,0,1],"children":[218,219,220,221,222,223,224]},{"name":"pedestal","translation":[0,0,0],"rotation":[0,0,0,1],"scale":[7,7,2.1],"mesh":0},{"name":"pedestal_armor","translation":[0,0,1.4],"rotation":[0,0,0,1],"scale":[5.7,5.7,1.2],"mesh":1},{"name":"base_energy_ring","translation":[0,0,0.3],"rotation":[0,0,0,1],"scale":[6.2,6.2,1.8],"mesh":2},{"name":"base_greeble_1","translation":[5.2,0,2.5],"rotation":[0,0,0,1],"scale":[1.25,0.55,1.3],"mesh":3},{"name":"base_greeble_2","translation":[2.6000000000000005,4.50333209967908,2.5],"rotation":[0,0,0.49999999999999994,0.8660254037844387],"scale":[1.25,0.55,1.3],"mesh":4},{"name":"base_greeble_3","translation":[-2.5999999999999988,4.503332099679081,2.5],"rotation":[0,0,0.8660254037844386,0.5000000000000001],"scale":[1.25,0.55,1.3],"mesh":3},{"name":"base_greeble_4","translation":[-5.2,6.368163355566237e-16,2.5],"rotation":[0,0,1,6.123233995736766e-17],"scale":[1.25,0.55,1.3],"mesh":4},{"name":"base_greeble_5","translation":[-2.6000000000000023,-4.50333209967908,2.5],"rotation":[0,0,0.8660254037844387,-0.4999999999999998],"scale":[1.25,0.55,1.3],"mesh":3},{"name":"base_greeble_6","translation":[2.6000000000000005,-4.50333209967908,2.5],"rotation":[0,0,0.49999999999999994,-0.8660254037844387],"scale":[1.25,0.55,1.3],"mesh":4},{"name":"weapon_housing","translation":[0,0,3.5],"rotation":[0,0,0,1],"scale":[4.5,3.5,4.5],"mesh":3},{"name":"energy_core","translation":[0,0,8],"rotation":[0,0,0,1],"scale":[3.7,3.2,2.8],"mesh":9},{"name":"rotor_energy_1","translation":[0,0,7],"rotation":[0,0,0,1],"scale":[3.7,3.7,1.35],"mesh":2},{"name":"rotor_energy_2","translation":[0,0,9.4],"rotation":[0.19672554931012948,0.1367615428306849,0.02772293720342897,0.9704776027317752],"scale":[4.25,4.25,1.35],"mesh":2},{"name":"rotor_energy_3","translation":[0,0,11.8],"rotation":[0.37425261565369394,0.2545404083647746,0.10761795855146918,0.8851906773023971],"scale":[4.800000000000001,4.800000000000001,1.35],"mesh":2},{"name":"emitter_0","translation":[0,0,15],"rotation":[0,0,0,1],"scale":[0.7,0.7,6],"mesh":7},{"name":"muzzle_01","translation":[0,0,21],"rotation":[0,0,0,1],"extras":{"socket":"muzzle","energy":"gravity"}},{"name":"shield_socket","translation":[0,0,6],"rotation":[0,0,0,1],"extras":{"socket":"shield"}},{"name":"camera_focus","translation":[0,0,8],"rotation":[0,0,0,1],"extras":{"socket":"camera"}},{"name":"tower_phase","extras":{"kind":"tower","key":"phase","lod":"high","forward":"+Z","up":"+Y"},"children":[228,229,230,231,232,233,234,235,236,237,247,248]},{"name":"head","translation":[0,0,4.2],"rotation":[0,0,0,1],"children":[238,239,240,241,242,243,244,245,246]},{"name":"pedestal","translation":[0,0,0],"rotation":[0,0,0,1],"scale":[7,7,2.1],"mesh":0},{"name":"pedestal_armor","translation":[0,0,1.4],"rotation":[0,0,0,1],"scale":[5.7,5.7,1.2],"mesh":1},{"name":"base_energy_ring","translation":[0,0,0.3],"rotation":[0,0,0,1],"scale":[6.2,6.2,1.8],"mesh":2},{"name":"base_greeble_1","translation":[5.2,0,2.5],"rotation":[0,0,0,1],"scale":[1.25,0.55,1.3],"mesh":3},{"name":"base_greeble_2","translation":[2.6000000000000005,4.50333209967908,2.5],"rotation":[0,0,0.49999999999999994,0.8660254037844387],"scale":[1.25,0.55,1.3],"mesh":4},{"name":"base_greeble_3","translation":[-2.5999999999999988,4.503332099679081,2.5],"rotation":[0,0,0.8660254037844386,0.5000000000000001],"scale":[1.25,0.55,1.3],"mesh":3},{"name":"base_greeble_4","translation":[-5.2,6.368163355566237e-16,2.5],"rotation":[0,0,1,6.123233995736766e-17],"scale":[1.25,0.55,1.3],"mesh":4},{"name":"base_greeble_5","translation":[-2.6000000000000023,-4.50333209967908,2.5],"rotation":[0,0,0.8660254037844387,-0.4999999999999998],"scale":[1.25,0.55,1.3],"mesh":3},{"name":"base_greeble_6","translation":[2.6000000000000005,-4.50333209967908,2.5],"rotation":[0,0,0.49999999999999994,-0.8660254037844387],"scale":[1.25,0.55,1.3],"mesh":4},{"name":"weapon_housing","translation":[0,0,3.4],"rotation":[0,0,0,1],"scale":[4.6,3.3,4.2],"mesh":3},{"name":"rail_-2.2","translation":[-2.2,0,13],"rotation":[0,0,0,1],"scale":[0.72,0.72,10],"mesh":13},{"name":"rail_2.2","translation":[2.2,0,13],"rotation":[0,0,0,1],"scale":[0.72,0.72,10],"mesh":13},{"name":"rail_brace_1","translation":[0,0,7],"rotation":[0,0,0,1],"scale":[3.6,0.42,0.34],"mesh":4},{"name":"rail_brace_2","translation":[0,0,10.6],"rotation":[0,0,0,1],"scale":[3.6,0.42,0.34],"mesh":4},{"name":"rail_brace_3","translation":[0,0,14.2],"rotation":[0,0,0,1],"scale":[3.6,0.42,0.34],"mesh":4},{"name":"rail_brace_4","translation":[0,0,17.8],"rotation":[0,0,0,1],"scale":[3.6,0.42,0.34],"mesh":4},{"name":"rail_brace_5","translation":[0,0,21.4],"rotation":[0,0,0,1],"scale":[3.6,0.42,0.34],"mesh":4},{"name":"muzzle_01","translation":[0,0,24],"rotation":[0,0,0,1],"extras":{"socket":"muzzle"}},{"name":"shield_socket","translation":[0,0,6],"rotation":[0,0,0,1],"extras":{"socket":"shield"}},{"name":"camera_focus","translation":[0,0,8],"rotation":[0,0,0,1],"extras":{"socket":"camera"}},{"name":"tower_antimatter","extras":{"kind":"tower","key":"antimatter","lod":"high","forward":"+Z","up":"+Y"},"children":[250,251,252,253,254,255,256,257,258,259,267,268]},{"name":"head","translation":[0,0,4.2],"rotation":[0,0,0,1],"children":[260,261,262,263,264,265,266]},{"name":"pedestal","translation":[0,0,0],"rotation":[0,0,0,1],"scale":[7,7,2.1],"mesh":0},{"name":"pedestal_armor","translation":[0,0,1.4],"rotation":[0,0,0,1],"scale":[5.7,5.7,1.2],"mesh":1},{"name":"base_energy_ring","translation":[0,0,0.3],"rotation":[0,0,0,1],"scale":[6.2,6.2,1.8],"mesh":2},{"name":"base_greeble_1","translation":[5.2,0,2.5],"rotation":[0,0,0,1],"scale":[1.25,0.55,1.3],"mesh":3},{"name":"base_greeble_2","translation":[2.6000000000000005,4.50333209967908,2.5],"rotation":[0,0,0.49999999999999994,0.8660254037844387],"scale":[1.25,0.55,1.3],"mesh":4},{"name":"base_greeble_3","translation":[-2.5999999999999988,4.503332099679081,2.5],"rotation":[0,0,0.8660254037844386,0.5000000000000001],"scale":[1.25,0.55,1.3],"mesh":3},{"name":"base_greeble_4","translation":[-5.2,6.368163355566237e-16,2.5],"rotation":[0,0,1,6.123233995736766e-17],"scale":[1.25,0.55,1.3],"mesh":4},{"name":"base_greeble_5","translation":[-2.6000000000000023,-4.50333209967908,2.5],"rotation":[0,0,0.8660254037844387,-0.4999999999999998],"scale":[1.25,0.55,1.3],"mesh":3},{"name":"base_greeble_6","translation":[2.6000000000000005,-4.50333209967908,2.5],"rotation":[0,0,0.49999999999999994,-0.8660254037844387],"scale":[1.25,0.55,1.3],"mesh":4},{"name":"weapon_housing","translation":[0,0,3.5],"rotation":[0,0,0,1],"scale":[4.5,3.5,4.5],"mesh":3},{"name":"energy_core","translation":[0,0,8],"rotation":[0,0,0,1],"scale":[2.8,2.8,2.8],"mesh":14},{"name":"rotor_energy_1","translation":[0,0,7],"rotation":[0,0,0,1],"scale":[3.7,3.7,1.35],"mesh":15},{"name":"rotor_energy_2","translation":[0,0,9.4],"rotation":[0.19672554931012948,0.1367615428306849,0.02772293720342897,0.9704776027317752],"scale":[4.25,4.25,1.35],"mesh":15},{"name":"rotor_energy_3","translation":[0,0,11.8],"rotation":[0.37425261565369394,0.2545404083647746,0.10761795855146918,0.8851906773023971],"scale":[4.800000000000001,4.800000000000001,1.35],"mesh":15},{"name":"emitter_0","translation":[0,0,15],"rotation":[0,0,0,1],"scale":[0.7,0.7,6],"mesh":16},{"name":"muzzle_01","translation":[0,0,21],"rotation":[0,0,0,1],"extras":{"socket":"muzzle","energy":"antimatter"}},{"name":"shield_socket","translation":[0,0,6],"rotation":[0,0,0,1],"extras":{"socket":"shield"}},{"name":"camera_focus","translation":[0,0,8],"rotation":[0,0,0,1],"extras":{"socket":"camera"}},{"name":"tower_ionarray","extras":{"kind":"tower","key":"ionarray","lod":"high","forward":"+Z","up":"+Y"},"children":[270,271,272,273,274,275,276,277,278,279,288,289]},{"name":"head","translation":[0,0,4.2],"rotation":[0,0,0,1],"children":[280,281,282,283,284,285,286,287]},{"name":"pedestal","translation":[0,0,0],"rotation":[0,0,0,1],"scale":[7,7,2.1],"mesh":0},{"name":"pedestal_armor","translation":[0,0,1.4],"rotation":[0,0,0,1],"scale":[5.7,5.7,1.2],"mesh":1},{"name":"base_energy_ring","translation":[0,0,0.3],"rotation":[0,0,0,1],"scale":[6.2,6.2,1.8],"mesh":2},{"name":"base_greeble_1","translation":[5.2,0,2.5],"rotation":[0,0,0,1],"scale":[1.25,0.55,1.3],"mesh":3},{"name":"base_greeble_2","translation":[2.6000000000000005,4.50333209967908,2.5],"rotation":[0,0,0.49999999999999994,0.8660254037844387],"scale":[1.25,0.55,1.3],"mesh":4},{"name":"base_greeble_3","translation":[-2.5999999999999988,4.503332099679081,2.5],"rotation":[0,0,0.8660254037844386,0.5000000000000001],"scale":[1.25,0.55,1.3],"mesh":3},{"name":"base_greeble_4","translation":[-5.2,6.368163355566237e-16,2.5],"rotation":[0,0,1,6.123233995736766e-17],"scale":[1.25,0.55,1.3],"mesh":4},{"name":"base_greeble_5","translation":[-2.6000000000000023,-4.50333209967908,2.5],"rotation":[0,0,0.8660254037844387,-0.4999999999999998],"scale":[1.25,0.55,1.3],"mesh":3},{"name":"base_greeble_6","translation":[2.6000000000000005,-4.50333209967908,2.5],"rotation":[0,0,0.49999999999999994,-0.8660254037844387],"scale":[1.25,0.55,1.3],"mesh":4},{"name":"weapon_housing","translation":[0,0,3.5],"rotation":[0,0,0,1],"scale":[4.5,3.5,4.5],"mesh":3},{"name":"energy_core","translation":[0,0,8],"rotation":[0,0,0,1],"scale":[2.8,2.8,2.8],"mesh":9},{"name":"focus_ring_1","translation":[0,0,7],"rotation":[0,0,0,1],"scale":[3.7,3.7,1.35],"mesh":2},{"name":"focus_ring_2","translation":[0,0,9.4],"rotation":[0.19672554931012948,0.1367615428306849,0.02772293720342897,0.9704776027317752],"scale":[4.25,4.25,1.35],"mesh":2},{"name":"focus_ring_3","translation":[0,0,11.8],"rotation":[0.37425261565369394,0.2545404083647746,0.10761795855146918,0.8851906773023971],"scale":[4.800000000000001,4.800000000000001,1.35],"mesh":2},{"name":"emitter_-2.4","translation":[-2.4,0,15],"rotation":[0,0,0,1],"scale":[0.7,0.7,6],"mesh":7},{"name":"emitter_2.4","translation":[2.4,0,15],"rotation":[0,0,0,1],"scale":[0.7,0.7,6],"mesh":7},{"name":"muzzle_01","translation":[0,0,21],"rotation":[0,0,0,1],"extras":{"socket":"muzzle","energy":"ionarray"}},{"name":"shield_socket","translation":[0,0,6],"rotation":[0,0,0,1],"extras":{"socket":"shield"}},{"name":"camera_focus","translation":[0,0,8],"rotation":[0,0,0,1],"extras":{"socket":"camera"}},{"name":"tower_photon","extras":{"kind":"tower","key":"photon","lod":"high","forward":"+Z","up":"+Y"},"children":[291,292,293,294,295,296,297,298,299,300,309,310]},{"name":"head","translation":[0,0,4.2],"rotation":[0,0,0,1],"children":[301,302,303,304,305,306,307,308]},{"name":"pedestal","translation":[0,0,0],"rotation":[0,0,0,1],"scale":[7,7,2.1],"mesh":0},{"name":"pedestal_armor","translation":[0,0,1.4],"rotation":[0,0,0,1],"scale":[5.7,5.7,1.2],"mesh":1},{"name":"base_energy_ring","translation":[0,0,0.3],"rotation":[0,0,0,1],"scale":[6.2,6.2,1.8],"mesh":2},{"name":"base_greeble_1","translation":[5.2,0,2.5],"rotation":[0,0,0,1],"scale":[1.25,0.55,1.3],"mesh":3},{"name":"base_greeble_2","translation":[2.6000000000000005,4.50333209967908,2.5],"rotation":[0,0,0.49999999999999994,0.8660254037844387],"scale":[1.25,0.55,1.3],"mesh":4},{"name":"base_greeble_3","translation":[-2.5999999999999988,4.503332099679081,2.5],"rotation":[0,0,0.8660254037844386,0.5000000000000001],"scale":[1.25,0.55,1.3],"mesh":3},{"name":"base_greeble_4","translation":[-5.2,6.368163355566237e-16,2.5],"rotation":[0,0,1,6.123233995736766e-17],"scale":[1.25,0.55,1.3],"mesh":4},{"name":"base_greeble_5","translation":[-2.6000000000000023,-4.50333209967908,2.5],"rotation":[0,0,0.8660254037844387,-0.4999999999999998],"scale":[1.25,0.55,1.3],"mesh":3},{"name":"base_greeble_6","translation":[2.6000000000000005,-4.50333209967908,2.5],"rotation":[0,0,0.49999999999999994,-0.8660254037844387],"scale":[1.25,0.55,1.3],"mesh":4},{"name":"weapon_housing","translation":[0,0,3.5],"rotation":[0,0,0,1],"scale":[4.5,3.5,4.5],"mesh":3},{"name":"energy_core","translation":[0,0,8],"rotation":[0,0,0,1],"scale":[2.8,2.8,2.8],"mesh":9},{"name":"focus_ring_1","translation":[0,0,7],"rotation":[0,0,0,1],"scale":[3.7,3.7,1.35],"mesh":2},{"name":"focus_ring_2","translation":[0,0,9.4],"rotation":[0.19672554931012948,0.1367615428306849,0.02772293720342897,0.9704776027317752],"scale":[4.25,4.25,1.35],"mesh":2},{"name":"focus_ring_3","translation":[0,0,11.8],"rotation":[0.37425261565369394,0.2545404083647746,0.10761795855146918,0.8851906773023971],"scale":[4.800000000000001,4.800000000000001,1.35],"mesh":2},{"name":"focus_ring_4","translation":[0,0,14.2],"rotation":[0.5155687976875937,0.33653922426176935,0.230238870768236,0.7536048220198854],"scale":[5.3500000000000005,5.3500000000000005,1.35],"mesh":2},{"name":"emitter_0","translation":[0,0,15],"rotation":[0,0,0,1],"scale":[0.7,0.7,6],"mesh":7},{"name":"muzzle_01","translation":[0,0,21],"rotation":[0,0,0,1],"extras":{"socket":"muzzle","energy":"photon"}},{"name":"shield_socket","translation":[0,0,6],"rotation":[0,0,0,1],"extras":{"socket":"shield"}},{"name":"camera_focus","translation":[0,0,8],"rotation":[0,0,0,1],"extras":{"socket":"camera"}},{"name":"tower_solar","extras":{"kind":"tower","key":"solar","lod":"high","forward":"+Z","up":"+Y"},"children":[312,313,314,315,316,317,318,319,320,321,329,330]},{"name":"head","translation":[0,0,4.2],"rotation":[0,0,0,1],"children":[322,323,324,325,326,327,328]},{"name":"pedestal","translation":[0,0,0],"rotation":[0,0,0,1],"scale":[7,7,2.1],"mesh":0},{"name":"pedestal_armor","translation":[0,0,1.4],"rotation":[0,0,0,1],"scale":[5.7,5.7,1.2],"mesh":1},{"name":"base_energy_ring","translation":[0,0,0.3],"rotation":[0,0,0,1],"scale":[6.2,6.2,1.8],"mesh":10},{"name":"base_greeble_1","translation":[5.2,0,2.5],"rotation":[0,0,0,1],"scale":[1.25,0.55,1.3],"mesh":3},{"name":"base_greeble_2","translation":[2.6000000000000005,4.50333209967908,2.5],"rotation":[0,0,0.49999999999999994,0.8660254037844387],"scale":[1.25,0.55,1.3],"mesh":4},{"name":"base_greeble_3","translation":[-2.5999999999999988,4.503332099679081,2.5],"rotation":[0,0,0.8660254037844386,0.5000000000000001],"scale":[1.25,0.55,1.3],"mesh":3},{"name":"base_greeble_4","translation":[-5.2,6.368163355566237e-16,2.5],"rotation":[0,0,1,6.123233995736766e-17],"scale":[1.25,0.55,1.3],"mesh":4},{"name":"base_greeble_5","translation":[-2.6000000000000023,-4.50333209967908,2.5],"rotation":[0,0,0.8660254037844387,-0.4999999999999998],"scale":[1.25,0.55,1.3],"mesh":3},{"name":"base_greeble_6","translation":[2.6000000000000005,-4.50333209967908,2.5],"rotation":[0,0,0.49999999999999994,-0.8660254037844387],"scale":[1.25,0.55,1.3],"mesh":4},{"name":"weapon_housing","translation":[0,0,3.5],"rotation":[0,0,0,1],"scale":[5.7,4.6,4.5],"mesh":3},{"name":"energy_core","translation":[0,0,8],"rotation":[0,0,0,1],"scale":[2.8,2.8,4.1],"mesh":17},{"name":"rotor_energy_1","translation":[0,0,7],"rotation":[0,0,0,1],"scale":[3.7,3.7,1.35],"mesh":10},{"name":"rotor_energy_2","translation":[0,0,9.4],"rotation":[0.19672554931012948,0.1367615428306849,0.02772293720342897,0.9704776027317752],"scale":[4.25,4.25,1.35],"mesh":10},{"name":"rotor_energy_3","translation":[0,0,11.8],"rotation":[0.37425261565369394,0.2545404083647746,0.10761795855146918,0.8851906773023971],"scale":[4.800000000000001,4.800000000000001,1.35],"mesh":10},{"name":"emitter_0","translation":[0,0,15],"rotation":[0,0,0,1],"scale":[1.35,1.35,8.5],"mesh":12},{"name":"muzzle_01","translation":[0,0,24],"rotation":[0,0,0,1],"extras":{"socket":"muzzle","energy":"solar"}},{"name":"shield_socket","translation":[0,0,6],"rotation":[0,0,0,1],"extras":{"socket":"shield"}},{"name":"camera_focus","translation":[0,0,8],"rotation":[0,0,0,1],"extras":{"socket":"camera"}},{"name":"tower_helium3","extras":{"kind":"tower","key":"helium3","lod":"high","forward":"+Z","up":"+Y"},"children":[332,333,334,335,336,337,338,339,340,341,342,343,344,345,346,347,348,349,350,352,353]},{"name":"head","translation":[0,0,5.124],"rotation":[0,0,0,1],"children":[351]},{"name":"pedestal","translation":[0,0,0],"rotation":[0,0,0,1],"scale":[8.54,8.54,2.562],"mesh":0},{"name":"pedestal_armor","translation":[0,0,1.708],"rotation":[0,0,0,1],"scale":[6.954,6.954,1.464],"mesh":1},{"name":"base_energy_ring","translation":[0,0,0.366],"rotation":[0,0,0,1],"scale":[7.564,7.564,2.196],"mesh":18},{"name":"base_greeble_1","translation":[6.344,0,3.05],"rotation":[0,0,0,1],"scale":[1.525,0.671,1.586],"mesh":3},{"name":"base_greeble_2","translation":[3.1720000000000006,5.494065161608478,3.05],"rotation":[0,0,0.49999999999999994,0.8660254037844387],"scale":[1.525,0.671,1.586],"mesh":4},{"name":"base_greeble_3","translation":[-3.1719999999999984,5.4940651616084795,3.05],"rotation":[0,0,0.8660254037844386,0.5000000000000001],"scale":[1.525,0.671,1.586],"mesh":3},{"name":"base_greeble_4","translation":[-6.344,7.769159293790809e-16,3.05],"rotation":[0,0,1,6.123233995736766e-17],"scale":[1.525,0.671,1.586],"mesh":4},{"name":"base_greeble_5","translation":[-3.172000000000003,-5.494065161608478,3.05],"rotation":[0,0,0.8660254037844387,-0.4999999999999998],"scale":[1.525,0.671,1.586],"mesh":3},{"name":"base_greeble_6","translation":[3.1720000000000006,-5.494065161608478,3.05],"rotation":[0,0,0.49999999999999994,-0.8660254037844387],"scale":[1.525,0.671,1.586],"mesh":4},{"name":"refinery_core","translation":[0,0,11],"rotation":[0,0,0,1],"scale":[5.2,5.2,7],"mesh":19},{"name":"rotor_collector_1","translation":[0,0,11],"rotation":[0,0,0,1],"scale":[10,10,2],"mesh":18},{"name":"rotor_collector_2","translation":[0,0,11],"rotation":[0.20642032739649202,0.1364774800589593,0.029089143702950328,0.9684618565503292],"scale":[13,13,2],"mesh":10},{"name":"isotope_tank_1","translation":[7,0,15],"rotation":[0,0,0,1],"scale":[1.35,1.35,3.8],"mesh":1},{"name":"isotope_tank_2","translation":[3.500000000000001,6.06217782649107,15],"rotation":[0,0,0,1],"scale":[1.35,1.35,3.8],"mesh":1},{"name":"isotope_tank_3","translation":[-3.4999999999999982,6.062177826491071,15],"rotation":[0,0,0,1],"scale":[1.35,1.35,3.8],"mesh":1},{"name":"isotope_tank_4","translation":[-7,8.572527594031472e-16,15],"rotation":[0,0,0,1],"scale":[1.35,1.35,3.8],"mesh":1},{"name":"isotope_tank_5","translation":[-3.500000000000003,-6.0621778264910695,15],"rotation":[0,0,0,1],"scale":[1.35,1.35,3.8],"mesh":1},{"name":"isotope_tank_6","translation":[3.500000000000001,-6.06217782649107,15],"rotation":[0,0,0,1],"scale":[1.35,1.35,3.8],"mesh":1},{"name":"muzzle_01","translation":[0,0,22],"rotation":[0,0,0,1],"extras":{"socket":"muzzle"}},{"name":"shield_socket","translation":[0,0,6],"rotation":[0,0,0,1],"extras":{"socket":"shield"}},{"name":"camera_focus","translation":[0,0,8],"rotation":[0,0,0,1],"extras":{"socket":"camera"}},{"name":"tower_laboratory","extras":{"kind":"tower","key":"laboratory","lod":"high","forward":"+Z","up":"+Y"},"children":[355,356,357,358,359,360,361,362,363,364,365,366,367,368,369,370,371,372,374,375]},{"name":"head","translation":[0,0,5.124],"rotation":[0,0,0,1],"children":[373]},{"name":"pedestal","translation":[0,0,0],"rotation":[0,0,0,1],"scale":[8.54,8.54,2.562],"mesh":0},{"name":"pedestal_armor","translation":[0,0,1.708],"rotation":[0,0,0,1],"scale":[6.954,6.954,1.464],"mesh":1},{"name":"base_energy_ring","translation":[0,0,0.366],"rotation":[0,0,0,1],"scale":[7.564,7.564,2.196],"mesh":15},{"name":"base_greeble_1","translation":[6.344,0,3.05],"rotation":[0,0,0,1],"scale":[1.525,0.671,1.586],"mesh":3},{"name":"base_greeble_2","translation":[3.1720000000000006,5.494065161608478,3.05],"rotation":[0,0,0.49999999999999994,0.8660254037844387],"scale":[1.525,0.671,1.586],"mesh":4},{"name":"base_greeble_3","translation":[-3.1719999999999984,5.4940651616084795,3.05],"rotation":[0,0,0.8660254037844386,0.5000000000000001],"scale":[1.525,0.671,1.586],"mesh":3},{"name":"base_greeble_4","translation":[-6.344,7.769159293790809e-16,3.05],"rotation":[0,0,1,6.123233995736766e-17],"scale":[1.525,0.671,1.586],"mesh":4},{"name":"base_greeble_5","translation":[-3.172000000000003,-5.494065161608478,3.05],"rotation":[0,0,0.8660254037844387,-0.4999999999999998],"scale":[1.525,0.671,1.586],"mesh":3},{"name":"base_greeble_6","translation":[3.1720000000000006,-5.494065161608478,3.05],"rotation":[0,0,0.49999999999999994,-0.8660254037844387],"scale":[1.525,0.671,1.586],"mesh":4},{"name":"quantum_core","translation":[0,0,11],"rotation":[0,0,0,1],"scale":[5.3,5.3,5.3],"mesh":14},{"name":"rotor_quantum_1","translation":[0,0,11],"rotation":[0,0.19866933079506122,0,0.9800665778412416],"scale":[9,9,1.8],"mesh":15},{"name":"rotor_quantum_2","translation":[0,0,11],"rotation":[0.34553648095591,0.38609622974399366,0.2703297267068351,0.811453067382635],"scale":[11.5,11.5,1.8],"mesh":2},{"name":"rotor_quantum_3","translation":[0,0,11],"rotation":[0.5833923396399433,0.38754653753618695,0.5662302670522047,0.43456224406537536],"scale":[14,14,1.8],"mesh":15},{"name":"research_module_1","translation":[10.5,0,11],"rotation":[0,0,0,1],"scale":[2.1,2.1,4.8],"mesh":4},{"name":"research_module_2","translation":[6.429395695523604e-16,10.5,11],"rotation":[0,0,0.7071067811865475,0.7071067811865476],"scale":[2.1,2.1,4.8],"mesh":4},{"name":"research_module_3","translation":[-10.5,1.2858791391047208e-15,11],"rotation":[0,0,1,6.123233995736766e-17],"scale":[2.1,2.1,4.8],"mesh":4},{"name":"research_module_4","translation":[-1.9288187086570813e-15,-10.5,11],"rotation":[0,0,0.7071067811865476,-0.7071067811865475],"scale":[2.1,2.1,4.8],"mesh":4},{"name":"muzzle_01","translation":[0,0,22],"rotation":[0,0,0,1],"extras":{"socket":"muzzle"}},{"name":"shield_socket","translation":[0,0,6],"rotation":[0,0,0,1],"extras":{"socket":"shield"}},{"name":"camera_focus","translation":[0,0,8],"rotation":[0,0,0,1],"extras":{"socket":"camera"}},{"name":"tower_shipyard","extras":{"kind":"tower","key":"shipyard","lod":"high","forward":"+Z","up":"+Y"},"children":[377,378,379,380,381,382,383,384,385,386,387,388,389,390,391,392,393,395,396]},{"name":"head","translation":[0,0,5.124],"rotation":[0,0,0,1],"children":[394]},{"name":"pedestal","translation":[0,0,0],"rotation":[0,0,0,1],"scale":[8.54,8.54,2.562],"mesh":0},{"name":"pedestal_armor","translation":[0,0,1.708],"rotation":[0,0,0,1],"scale":[6.954,6.954,1.464],"mesh":1},{"name":"base_energy_ring","translation":[0,0,0.366],"rotation":[0,0,0,1],"scale":[7.564,7.564,2.196],"mesh":2},{"name":"base_greeble_1","translation":[6.344,0,3.05],"rotation":[0,0,0,1],"scale":[1.525,0.671,1.586],"mesh":3},{"name":"base_greeble_2","translation":[3.1720000000000006,5.494065161608478,3.05],"rotation":[0,0,0.49999999999999994,0.8660254037844387],"scale":[1.525,0.671,1.586],"mesh":4},{"name":"base_greeble_3","translation":[-3.1719999999999984,5.4940651616084795,3.05],"rotation":[0,0,0.8660254037844386,0.5000000000000001],"scale":[1.525,0.671,1.586],"mesh":3},{"name":"base_greeble_4","translation":[-6.344,7.769159293790809e-16,3.05],"rotation":[0,0,1,6.123233995736766e-17],"scale":[1.525,0.671,1.586],"mesh":4},{"name":"base_greeble_5","translation":[-3.172000000000003,-5.494065161608478,3.05],"rotation":[0,0,0.8660254037844387,-0.4999999999999998],"scale":[1.525,0.671,1.586],"mesh":3},{"name":"base_greeble_6","translation":[3.1720000000000006,-5.494065161608478,3.05],"rotation":[0,0,0.49999999999999994,-0.8660254037844387],"scale":[1.525,0.671,1.586],"mesh":4},{"name":"dock_spine","translation":[0,0,11],"rotation":[0,0,0,1],"scale":[4.4,4.4,8],"mesh":19},{"name":"rotor_dock_1","translation":[0,0,11],"rotation":[0,0,0,1],"scale":[10,10,2],"mesh":18},{"name":"rotor_dock_2","translation":[0,0,11],"rotation":[0,0,0,1],"scale":[14,14,2],"mesh":10},{"name":"construction_arm_1","translation":[10,0,11],"rotation":[0,0,0,1],"scale":[2.2,2.2,9],"mesh":4},{"name":"construction_arm_2","translation":[6.123233995736766e-16,10,11],"rotation":[0,0,0.7071067811865475,0.7071067811865476],"scale":[2.2,2.2,9],"mesh":4},{"name":"construction_arm_3","translation":[-10,1.2246467991473533e-15,11],"rotation":[0,0,1,6.123233995736766e-17],"scale":[2.2,2.2,9],"mesh":4},{"name":"construction_arm_4","translation":[-1.8369701987210296e-15,-10,11],"rotation":[0,0,0.7071067811865476,-0.7071067811865475],"scale":[2.2,2.2,9],"mesh":4},{"name":"muzzle_01","translation":[0,0,22],"rotation":[0,0,0,1],"extras":{"socket":"muzzle"}},{"name":"shield_socket","translation":[0,0,6],"rotation":[0,0,0,1],"extras":{"socket":"shield"}},{"name":"camera_focus","translation":[0,0,8],"rotation":[0,0,0,1],"extras":{"socket":"camera"}}],"meshes":[{"name":"cyl_tower_hull","primitives":[{"attributes":{"POSITION":0,"NORMAL":1},"indices":2,"material":0}],"extras":{"triangles":80}},{"name":"cyl12_tower_armor","primitives":[{"attributes":{"POSITION":3,"NORMAL":4},"indices":5,"material":1}],"extras":{"triangles":48}},{"name":"torus_accent","primitives":[{"attributes":{"POSITION":6,"NORMAL":7},"indices":8,"material":3}],"extras":{"triangles":720}},{"name":"box_tower_dark","primitives":[{"attributes":{"POSITION":9,"NORMAL":10},"indices":11,"material":2}],"extras":{"triangles":12}},{"name":"box_tower_armor","primitives":[{"attributes":{"POSITION":9,"NORMAL":10},"indices":11,"material":1}],"extras":{"triangles":12}},{"name":"cyl_accent","primitives":[{"attributes":{"POSITION":0,"NORMAL":1},"indices":2,"material":3}],"extras":{"triangles":80}},{"name":"torusLow_tower_armor","primitives":[{"attributes":{"POSITION":12,"NORMAL":13},"indices":14,"material":1}],"extras":{"triangles":336}},{"name":"cyl12_accent","primitives":[{"attributes":{"POSITION":3,"NORMAL":4},"indices":5,"material":3}],"extras":{"triangles":48}},{"name":"cyl12_hot","primitives":[{"attributes":{"POSITION":3,"NORMAL":4},"indices":5,"material":4}],"extras":{"triangles":48}},{"name":"sphere_accent","primitives":[{"attributes":{"POSITION":15,"NORMAL":16},"indices":17,"material":3}],"extras":{"triangles":480}},{"name":"torus_hot","primitives":[{"attributes":{"POSITION":6,"NORMAL":7},"indices":8,"material":4}],"extras":{"triangles":720}},{"name":"box_accent","primitives":[{"attributes":{"POSITION":9,"NORMAL":10},"indices":11,"material":3}],"extras":{"triangles":12}},{"name":"cyl_hot","primitives":[{"attributes":{"POSITION":0,"NORMAL":1},"indices":2,"material":4}],"extras":{"triangles":80}},{"name":"box_science","primitives":[{"attributes":{"POSITION":9,"NORMAL":10},"indices":11,"material":5}],"extras":{"triangles":12}},{"name":"sphere_science","primitives":[{"attributes":{"POSITION":15,"NORMAL":16},"indices":17,"material":5}],"extras":{"triangles":480}},{"name":"torus_science","primitives":[{"attributes":{"POSITION":6,"NORMAL":7},"indices":8,"material":5}],"extras":{"triangles":720}},{"name":"cyl12_science","primitives":[{"attributes":{"POSITION":3,"NORMAL":4},"indices":5,"material":5}],"extras":{"triangles":48}},{"name":"sphere_hot","primitives":[{"attributes":{"POSITION":15,"NORMAL":16},"indices":17,"material":4}],"extras":{"triangles":480}},{"name":"torus_h3","primitives":[{"attributes":{"POSITION":6,"NORMAL":7},"indices":8,"material":6}],"extras":{"triangles":720}},{"name":"cyl_tower_dark","primitives":[{"attributes":{"POSITION":0,"NORMAL":1},"indices":2,"material":2}],"extras":{"triangles":80}}],"materials":[{"name":"tower_hull","pbrMetallicRoughness":{"baseColorFactor":[0.27,0.36,0.42,1],"metallicFactor":0.88,"roughnessFactor":0.28},"emissiveFactor":[0,0,0],"doubleSided":false,"alphaMode":"OPAQUE","extras":{"role":"hull","index":0}},{"name":"tower_armor","pbrMetallicRoughness":{"baseColorFactor":[0.48,0.58,0.64,1],"metallicFactor":0.82,"roughnessFactor":0.34},"emissiveFactor":[0,0,0],"doubleSided":false,"alphaMode":"OPAQUE","extras":{"role":"armor","index":1}},{"name":"tower_dark","pbrMetallicRoughness":{"baseColorFactor":[0.035,0.07,0.1,1],"metallicFactor":0.9,"roughnessFactor":0.2},"emissiveFactor":[0,0,0],"doubleSided":false,"alphaMode":"OPAQUE","extras":{"role":"shadow","index":2}},{"name":"accent","pbrMetallicRoughness":{"baseColorFactor":[0.08,0.72,1,1],"metallicFactor":0.35,"roughnessFactor":0.16},"emissiveFactor":[0.04,0.38,0.65],"doubleSided":false,"alphaMode":"OPAQUE","extras":{"role":"accent","index":3}},{"name":"hot","pbrMetallicRoughness":{"baseColorFactor":[1,0.36,0.12,1],"metallicFactor":0.24,"roughnessFactor":0.18},"emissiveFactor":[0.7,0.1,0.02],"doubleSided":false,"alphaMode":"OPAQUE","extras":{"role":"weapon","index":4}},{"name":"science","pbrMetallicRoughness":{"baseColorFactor":[0.57,0.29,1,1],"metallicFactor":0.3,"roughnessFactor":0.18},"emissiveFactor":[0.32,0.08,0.7],"doubleSided":false,"alphaMode":"OPAQUE","extras":{"role":"science","index":5}},{"name":"h3","pbrMetallicRoughness":{"baseColorFactor":[0.42,1,0.92,1],"metallicFactor":0.36,"roughnessFactor":0.2},"emissiveFactor":[0.08,0.5,0.42],"doubleSided":false,"alphaMode":"OPAQUE","extras":{"role":"resource","index":6}}],"accessors":[{"bufferView":0,"componentType":5126,"count":84,"type":"VEC3","min":[-1,-1,-1],"max":[1,1,1]},{"bufferView":1,"componentType":5126,"count":84,"type":"VEC3"},{"bufferView":2,"componentType":5125,"count":240,"type":"SCALAR"},{"bufferView":3,"componentType":5126,"count":52,"type":"VEC3","min":[-1,-1,-1],"max":[1,1,1]},{"bufferView":4,"componentType":5126,"count":52,"type":"VEC3"},{"bufferView":5,"componentType":5125,"count":144,"type":"SCALAR"},{"bufferView":6,"componentType":5126,"count":407,"type":"VEC3","min":[-1.159999966621399,-1.159999966621399,-0.15216904878616333],"max":[1.159999966621399,1.159999966621399,0.15216904878616333]},{"bufferView":7,"componentType":5126,"count":407,"type":"VEC3"},{"bufferView":8,"componentType":5125,"count":2160,"type":"SCALAR"},{"bufferView":9,"componentType":5126,"count":24,"type":"VEC3","min":[-1,-1,-1],"max":[1,1,1]},{"bufferView":10,"componentType":5126,"count":24,"type":"VEC3"},{"bufferView":11,"componentType":5125,"count":36,"type":"SCALAR"},{"bufferView":12,"componentType":5126,"count":200,"type":"VEC3","min":[-1.159999966621399,-1.159999966621399,-0.15598846971988678],"max":[1.159999966621399,1.159999966621399,0.15598846971988678]},{"bufferView":13,"componentType":5126,"count":200,"type":"VEC3"},{"bufferView":14,"componentType":5125,"count":1008,"type":"SCALAR"},{"bufferView":15,"componentType":5126,"count":273,"type":"VEC3","min":[-1,-1,-1],"max":[1,1,1]},{"bufferView":16,"componentType":5126,"count":273,"type":"VEC3"},{"bufferView":17,"componentType":5125,"count":1440,"type":"SCALAR"}],"bufferViews":[{"buffer":0,"byteOffset":0,"byteLength":1008,"target":34962},{"buffer":0,"byteOffset":1008,"byteLength":1008,"target":34962},{"buffer":0,"byteOffset":2016,"byteLength":960,"target":34963},{"buffer":0,"byteOffset":2976,"byteLength":624,"target":34962},{"buffer":0,"byteOffset":3600,"byteLength":624,"target":34962},{"buffer":0,"byteOffset":4224,"byteLength":576,"target":34963},{"buffer":0,"byteOffset":4800,"byteLength":4884,"target":34962},{"buffer":0,"byteOffset":9684,"byteLength":4884,"target":34962},{"buffer":0,"byteOffset":14568,"byteLength":8640,"target":34963},{"buffer":0,"byteOffset":23208,"byteLength":288,"target":34962},{"buffer":0,"byteOffset":23496,"byteLength":288,"target":34962},{"buffer":0,"byteOffset":23784,"byteLength":144,"target":34963},{"buffer":0,"byteOffset":23928,"byteLength":2400,"target":34962},{"buffer":0,"byteOffset":26328,"byteLength":2400,"target":34962},{"buffer":0,"byteOffset":28728,"byteLength":4032,"target":34963},{"buffer":0,"byteOffset":32760,"byteLength":3276,"target":34962},{"buffer":0,"byteOffset":36036,"byteLength":3276,"target":34962},{"buffer":0,"byteOffset":39312,"byteLength":5760,"target":34963}],"buffers":[{"byteLength":45072,"uri":"data:application/octet-stream;base64,"}],"extras":{"family":"tower","prefix":"tower_","models":["blaster","gatling","flak","laser","cryo","missile","tesla","plasma","railgun","artillery","gravity","phase","antimatter","ionarray","photon","solar","helium3","laboratory","shipyard"],"units":"game-space","fallback":"procedural HTML"}}